<?xml version="1.0" encoding="UTF-8"?>
<!DOCTYPE svg PUBLIC "-//W3C//DTD SVG 1.1//EN" "http://www.w3.org/Graphics/SVG/1.1/DTD/svg11.dtd">
<svg xmlns="http://www.w3.org/2000/svg" version="1.1" width="1536px" height="1024px" style="shape-rendering:geometricPrecision; text-rendering:geometricPrecision; image-rendering:optimizeQuality; fill-rule:evenodd; clip-rule:evenodd" xmlns:xlink="http://www.w3.org/1999/xlink">
<g><path style="opacity:1" fill="#4a4b4a" d="M 948.5,0.5 C 949.833,1.16667 949.833,1.16667 948.5,0.5 Z"/></g>
<g><path style="opacity:1" fill="#4a4b4a" d="M 997.5,2.5 C 998.833,3.16667 998.833,3.16667 997.5,2.5 Z"/></g>
<g><path style="opacity:1" fill="#5c5d63" d="M 84.5,4.5 C 85.8333,5.16667 85.8333,5.16667 84.5,4.5 Z"/></g>
<g><path style="opacity:1" fill="#4a4b4a" d="M 494.5,4.5 C 495.833,5.16667 495.833,5.16667 494.5,4.5 Z"/></g>
<g><path style="opacity:1" fill="#434b4a" d="M 948.5,4.5 C 949.833,5.16667 949.833,5.16667 948.5,4.5 Z"/></g>
<g><path style="opacity:1" fill="#4a4b50" d="M 1089.5,10.5 C 1090.83,11.1667 1090.83,11.1667 1089.5,10.5 Z"/></g>
<g><path style="opacity:1" fill="#4a4b4a" d="M 494.5,12.5 C 495.833,13.1667 495.833,13.1667 494.5,12.5 Z"/></g>
<g><path style="opacity:1" fill="#434443" d="M 948.5,12.5 C 949.833,13.1667 949.833,13.1667 948.5,12.5 Z"/></g>
<g><path style="opacity:1" fill="#5c5d5c" d="M 83.5,13.5 C 84.8333,14.1667 84.8333,14.1667 83.5,13.5 Z"/></g>
<g><path style="opacity:1" fill="#4a4b4a" d="M 1043.5,13.5 C 1044.83,14.1667 1044.83,14.1667 1043.5,13.5 Z"/></g>
<g><path style="opacity:1" fill="#434b4a" d="M 631.5,16.5 C 632.833,17.1667 632.833,17.1667 631.5,16.5 Z"/></g>
<g><path style="opacity:1" fill="#434b4a" d="M 997.5,18.5 C 998.833,19.1667 998.833,19.1667 997.5,18.5 Z"/></g>
<g><path style="opacity:1" fill="#4a4b4a" d="M 494.5,20.5 C 495.833,21.1667 495.833,21.1667 494.5,20.5 Z"/></g>
<g><path style="opacity:1" fill="#434443" d="M 948.5,20.5 C 949.833,21.1667 949.833,21.1667 948.5,20.5 Z"/></g>
<g><path style="opacity:1" fill="#4a4b4a" d="M 1043.5,21.5 C 1044.83,22.1667 1044.83,22.1667 1043.5,21.5 Z"/></g>
<g><path style="opacity:1" fill="#4a514a" d="M 1140.5,24.5 C 1141.83,25.1667 1141.83,25.1667 1140.5,24.5 Z"/></g>
<g><path style="opacity:1" fill="#4a4b4a" d="M 1089.5,26.5 C 1090.83,27.1667 1090.83,27.1667 1089.5,26.5 Z"/></g>
<g><path style="opacity:1" fill="#434443" d="M 494.5,28.5 C 495.833,29.1667 495.833,29.1667 494.5,28.5 Z"/></g>
<g><path style="opacity:1" fill="#3d4443" d="M 948.5,28.5 C 949.833,29.1667 949.833,29.1667 948.5,28.5 Z"/></g>
<g><path style="opacity:1" fill="#5c5d5c" d="M 83.5,29.5 C 84.8333,30.1667 84.8333,30.1667 83.5,29.5 Z"/></g>
<g><path style="opacity:1" fill="#4a4b4a" d="M 1043.5,29.5 C 1044.83,30.1667 1044.83,30.1667 1043.5,29.5 Z"/></g>
<g><path style="opacity:1" fill="#4a444a" d="M 1089.5,34.5 C 1090.83,35.1667 1090.83,35.1667 1089.5,34.5 Z"/></g>
<g><path style="opacity:1" fill="#434443" d="M 494.5,36.5 C 495.833,37.1667 495.833,37.1667 494.5,36.5 Z"/></g>
<g><path style="opacity:1" fill="#3d4443" d="M 948.5,36.5 C 949.833,37.1667 949.833,37.1667 948.5,36.5 Z"/></g>
<g><path style="opacity:1" fill="#3d3e3d" d="M 631.5,40.5 C 632.833,41.1667 632.833,41.1667 631.5,40.5 Z"/></g>
<g><path style="opacity:1" fill="#3d3e3d" d="M 727.5,40.5 C 728.833,41.1667 728.833,41.1667 727.5,40.5 Z"/></g>
<g><path style="opacity:1" fill="#434443" d="M 1089.5,42.5 C 1090.83,43.1667 1090.83,43.1667 1089.5,42.5 Z"/></g>
<g><path style="opacity:1" fill="#3d3e43" d="M 494.5,44.5 C 495.833,45.1667 495.833,45.1667 494.5,44.5 Z"/></g>
<g><path style="opacity:1" fill="#3d3e3d" d="M 948.5,44.5 C 949.833,45.1667 949.833,45.1667 948.5,44.5 Z"/></g>
<g><path style="opacity:1" fill="#565756" d="M 83.5,45.5 C 84.8333,46.1667 84.8333,46.1667 83.5,45.5 Z"/></g>
<g><path style="opacity:1" fill="#4a4b4a" d="M 1189.5,46.5 C 1190.83,47.1667 1190.83,47.1667 1189.5,46.5 Z"/></g>
<g><path style="opacity:1" fill="#434443" d="M 1089.5,50.5 C 1090.83,51.1667 1090.83,51.1667 1089.5,50.5 Z"/></g>
<g><path style="opacity:1" fill="#3d3e3d" d="M 494.5,52.5 C 495.833,53.1667 495.833,53.1667 494.5,52.5 Z"/></g>
<g><path style="opacity:1" fill="#373e3d" d="M 948.5,52.5 C 949.833,53.1667 949.833,53.1667 948.5,52.5 Z"/></g>
<g><path style="opacity:1" fill="#565756" d="M 83.5,53.5 C 84.8333,54.1667 84.8333,54.1667 83.5,53.5 Z"/></g>
<g><path style="opacity:1" fill="#4a4b4a" d="M 1189.5,54.5 C 1190.83,55.1667 1190.83,55.1667 1189.5,54.5 Z"/></g>
<g><path style="opacity:1" fill="#3d4443" d="M 1090.5,58.5 C 1091.83,59.1667 1091.83,59.1667 1090.5,58.5 Z"/></g>
<g><path style="opacity:1" fill="#505150" d="M 86.5,59.5 C 87.8333,60.1667 87.8333,60.1667 86.5,59.5 Z"/></g>
<g><path style="opacity:1" fill="#37383d" d="M 494.5,60.5 C 495.833,61.1667 495.833,61.1667 494.5,60.5 Z"/></g>
<g><path style="opacity:1" fill="#373e37" d="M 948.5,60.5 C 949.833,61.1667 949.833,61.1667 948.5,60.5 Z"/></g>
<g><path style="opacity:1" fill="#505150" d="M 83.5,61.5 C 84.8333,62.1667 84.8333,62.1667 83.5,61.5 Z"/></g>
<g><path style="opacity:1" fill="#3d3e3d" d="M 1043.5,61.5 C 1044.83,62.1667 1044.83,62.1667 1043.5,61.5 Z"/></g>
<g><path style="opacity:1" fill="#373837" d="M 995.5,65.5 C 996.833,66.1667 996.833,66.1667 995.5,65.5 Z"/></g>
<g><path style="opacity:1" fill="#373837" d="M 490.5,67.5 C 491.833,68.1667 491.833,68.1667 490.5,67.5 Z"/></g>
<g><path style="opacity:1" fill="#373837" d="M 494.5,68.5 C 495.833,69.1667 495.833,69.1667 494.5,68.5 Z"/></g>
<g><path style="opacity:1" fill="#373837" d="M 948.5,68.5 C 949.833,69.1667 949.833,69.1667 948.5,68.5 Z"/></g>
<g><path style="opacity:1" fill="#434443" d="M 1189.5,70.5 C 1190.83,71.1667 1190.83,71.1667 1189.5,70.5 Z"/></g>
<g><path style="opacity:1" fill="#373837" d="M 948.5,72.5 C 949.833,73.1667 949.833,73.1667 948.5,72.5 Z"/></g>
<g><path style="opacity:1" fill="#373837" d="M 997.5,74.5 C 998.833,75.1667 998.833,75.1667 997.5,74.5 Z"/></g>
<g><path style="opacity:1" fill="#3d3e37" d="M 1043.5,74.5 C 1044.83,75.1667 1044.83,75.1667 1043.5,74.5 Z"/></g>
<g><path style="opacity:1" fill="#373837" d="M 494.5,76.5 C 495.833,77.1667 495.833,77.1667 494.5,76.5 Z"/></g>
<g><path style="opacity:1" fill="#313837" d="M 948.5,76.5 C 949.833,77.1667 949.833,77.1667 948.5,76.5 Z"/></g>
<g><path style="opacity:1" fill="#313237" d="M 494.5,84.5 C 495.833,85.1667 495.833,85.1667 494.5,84.5 Z"/></g>
<g><path style="opacity:1" fill="#313231" d="M 948.5,84.5 C 949.833,85.1667 949.833,85.1667 948.5,84.5 Z"/></g>
<g><path style="opacity:1" fill="#373837" d="M 1043.5,85.5 C 1044.83,86.1667 1044.83,86.1667 1043.5,85.5 Z"/></g>
<g><path style="opacity:1" fill="#313231" d="M 948.5,88.5 C 949.833,89.1667 949.833,89.1667 948.5,88.5 Z"/></g>
<g><path style="opacity:1" fill="#373837" d="M 1089.5,90.5 C 1090.83,91.1667 1090.83,91.1667 1089.5,90.5 Z"/></g>
<g><path style="opacity:1" fill="#313231" d="M 494.5,92.5 C 495.833,93.1667 495.833,93.1667 494.5,92.5 Z"/></g>
<g><path style="opacity:1" fill="#313231" d="M 948.5,92.5 C 949.833,93.1667 949.833,93.1667 948.5,92.5 Z"/></g>
<g><path style="opacity:1" fill="#4a4b4a" d="M 83.5,93.5 C 84.8333,94.1667 84.8333,94.1667 83.5,93.5 Z"/></g>
<g><path style="opacity:1" fill="#373837" d="M 1043.5,93.5 C 1044.83,94.1667 1044.83,94.1667 1043.5,93.5 Z"/></g>
<g><path style="opacity:1" fill="#313231" d="M 997.5,98.5 C 998.833,99.1667 998.833,99.1667 997.5,98.5 Z"/></g>
<g><path style="opacity:1" fill="#2a3231" d="M 948.5,100.5 C 949.833,101.167 949.833,101.167 948.5,100.5 Z"/></g>
<g><path style="opacity:1" fill="#4a4b4a" d="M 83.5,101.5 C 84.8333,102.167 84.8333,102.167 83.5,101.5 Z"/></g>
<g><path style="opacity:1" fill="#313231" d="M 997.5,106.5 C 998.833,107.167 998.833,107.167 997.5,106.5 Z"/></g>
<g><path style="opacity:1" fill="#313231" d="M 1089.5,106.5 C 1090.83,107.167 1090.83,107.167 1089.5,106.5 Z"/></g>
<g><path style="opacity:1" fill="#313231" d="M 1043.5,109.5 C 1044.83,110.167 1044.83,110.167 1043.5,109.5 Z"/></g>
<g><path style="opacity:1" fill="#2a2b2a" d="M 948.5,116.5 C 949.833,117.167 949.833,117.167 948.5,116.5 Z"/></g>
<g><path style="opacity:1" fill="#2a252a" d="M 494.5,124.5 C 495.833,125.167 495.833,125.167 494.5,124.5 Z"/></g>
<g><path style="opacity:1" fill="#242b2a" d="M 948.5,124.5 C 949.833,125.167 949.833,125.167 948.5,124.5 Z"/></g>
<g><path style="opacity:1" fill="#434443" d="M 83.5,125.5 C 84.8333,126.167 84.8333,126.167 83.5,125.5 Z"/></g>
<g><path style="opacity:1" fill="#242524" d="M 948.5,132.5 C 949.833,133.167 949.833,133.167 948.5,132.5 Z"/></g>
<g><path style="opacity:1" fill="#434443" d="M 83.5,133.5 C 84.8333,134.167 84.8333,134.167 83.5,133.5 Z"/></g>
<g><path style="opacity:1" fill="#242524" d="M 948.5,136.5 C 949.833,137.167 949.833,137.167 948.5,136.5 Z"/></g>
<g><path style="opacity:1" fill="#2a3231" d="M 1140.5,136.5 C 1141.83,137.167 1141.83,137.167 1140.5,136.5 Z"/></g>
<g><path style="opacity:1" fill="#242524" d="M 494.5,140.5 C 495.833,141.167 495.833,141.167 494.5,140.5 Z"/></g>
<g><path style="opacity:1" fill="#242524" d="M 948.5,140.5 C 949.833,141.167 949.833,141.167 948.5,140.5 Z"/></g>
<g><path style="opacity:1" fill="#3d3e43" d="M 83.5,141.5 C 84.8333,142.167 84.8333,142.167 83.5,141.5 Z"/></g>
<g><path style="opacity:1" fill="#2a252a" d="M 1089.5,146.5 C 1090.83,147.167 1090.83,147.167 1089.5,146.5 Z"/></g>
<g><path style="opacity:1" fill="#1e2524" d="M 948.5,148.5 C 949.833,149.167 949.833,149.167 948.5,148.5 Z"/></g>
<g><path style="opacity:1" fill="#3d3e43" d="M 83.5,149.5 C 84.8333,150.167 84.8333,150.167 83.5,149.5 Z"/></g>
<g><path style="opacity:1" fill="#1e1f24" d="M 948.5,152.5 C 949.833,153.167 949.833,153.167 948.5,152.5 Z"/></g>
<g><path style="opacity:1" fill="#2a2b2a" d="M 1140.5,152.5 C 1141.83,153.167 1141.83,153.167 1140.5,152.5 Z"/></g>
<g><path style="opacity:1" fill="#1e2524" d="M 494.5,156.5 C 495.833,157.167 495.833,157.167 494.5,156.5 Z"/></g>
<g><path style="opacity:1" fill="#1e1f24" d="M 948.5,156.5 C 949.833,157.167 949.833,157.167 948.5,156.5 Z"/></g>
<g><path style="opacity:1" fill="#3d3e3d" d="M 83.5,157.5 C 84.8333,158.167 84.8333,158.167 83.5,157.5 Z"/></g>
<g><path style="opacity:1" fill="#1e2524" d="M 494.5,164.5 C 495.833,165.167 495.833,165.167 494.5,164.5 Z"/></g>
<g><path style="opacity:1" fill="#1e1f1e" d="M 948.5,164.5 C 949.833,165.167 949.833,165.167 948.5,164.5 Z"/></g>
<g><path style="opacity:1" fill="#3d3e3d" d="M 83.5,165.5 C 84.8333,166.167 84.8333,166.167 83.5,165.5 Z"/></g>
<g><path style="opacity:1" fill="#181f1e" d="M 948.5,172.5 C 949.833,173.167 949.833,173.167 948.5,172.5 Z"/></g>
<g><path style="opacity:1" fill="#19252a" d="M 494.5,180.5 C 495.833,181.167 495.833,181.167 494.5,180.5 Z"/></g>
<g><path style="opacity:1" fill="#181f1e" d="M 948.5,180.5 C 949.833,181.167 949.833,181.167 948.5,180.5 Z"/></g>
<g><path style="opacity:1" fill="#181f1e" d="M 948.5,188.5 C 949.833,189.167 949.833,189.167 948.5,188.5 Z"/></g>
<g><path style="opacity:1" fill="#242524" d="M 1189.5,190.5 C 1190.83,191.167 1190.83,191.167 1189.5,190.5 Z"/></g>
<g><path style="opacity:1" fill="#18191e" d="M 948.5,196.5 C 949.833,197.167 949.833,197.167 948.5,196.5 Z"/></g>
<g><path style="opacity:1" fill="#373837" d="M 83.5,197.5 C 84.8333,198.167 84.8333,198.167 83.5,197.5 Z"/></g>
<g><path style="opacity:1" fill="#373837" d="M 83.5,205.5 C 84.8333,206.167 84.8333,206.167 83.5,205.5 Z"/></g>
<g><path style="opacity:1" fill="#181f1e" d="M 1090.5,210.5 C 1091.83,211.167 1091.83,211.167 1090.5,210.5 Z"/></g>
<g><path style="opacity:1" fill="#313237" d="M 84.5,212.5 C 85.8333,213.167 85.8333,213.167 84.5,212.5 Z"/></g>
<g><path style="opacity:1" fill="#192b31" d="M 494.5,212.5 C 495.833,213.167 495.833,213.167 494.5,212.5 Z"/></g>
<g><path style="opacity:1" fill="#11191e" d="M 948.5,212.5 C 949.833,213.167 949.833,213.167 948.5,212.5 Z"/></g>
<g><path style="opacity:1" fill="#181f1e" d="M 995.5,213.5 C 996.833,214.167 996.833,214.167 995.5,213.5 Z"/></g>
<g><path style="opacity:1" fill="#192b38" d="M 494.5,220.5 C 495.833,221.167 495.833,221.167 494.5,220.5 Z"/></g>
<g><path style="opacity:1" fill="#11191e" d="M 948.5,220.5 C 949.833,221.167 949.833,221.167 948.5,220.5 Z"/></g>
<g><path style="opacity:1" fill="#18191e" d="M 1089.5,226.5 C 1090.83,227.167 1090.83,227.167 1089.5,226.5 Z"/></g>
<g><path style="opacity:1" fill="#313231" d="M 84.5,228.5 C 85.8333,229.167 85.8333,229.167 84.5,228.5 Z"/></g>
<g><path style="opacity:1" fill="#11191e" d="M 948.5,228.5 C 949.833,229.167 949.833,229.167 948.5,228.5 Z"/></g>
<g><path style="opacity:1" fill="#18191e" d="M 1044.5,228.5 C 1045.83,229.167 1045.83,229.167 1044.5,228.5 Z"/></g>
<g><path style="opacity:1" fill="#18191e" d="M 1090.5,234.5 C 1091.83,235.167 1091.83,235.167 1090.5,234.5 Z"/></g>
<g><path style="opacity:1" fill="#11191e" d="M 948.5,236.5 C 949.833,237.167 949.833,237.167 948.5,236.5 Z"/></g>
<g><path style="opacity:1" fill="#18191e" d="M 1089.5,242.5 C 1090.83,243.167 1090.83,243.167 1089.5,242.5 Z"/></g>
<g><path style="opacity:1" fill="#11191e" d="M 948.5,244.5 C 949.833,245.167 949.833,245.167 948.5,244.5 Z"/></g>
<g><path style="opacity:1" fill="#313231" d="M 83.5,245.5 C 84.8333,246.167 84.8333,246.167 83.5,245.5 Z"/></g>
<g><path style="opacity:1" fill="#193e51" d="M 494.5,252.5 C 495.833,253.167 495.833,253.167 494.5,252.5 Z"/></g>
<g><path style="opacity:1" fill="#11191e" d="M 948.5,252.5 C 949.833,253.167 949.833,253.167 948.5,252.5 Z"/></g>
<g><path style="opacity:1" fill="#313231" d="M 83.5,253.5 C 84.8333,254.167 84.8333,254.167 83.5,253.5 Z"/></g>
<g><path style="opacity:1" fill="#121925" d="M 948.5,260.5 C 949.833,261.167 949.833,261.167 948.5,260.5 Z"/></g>
<g><path style="opacity:1" fill="#313231" d="M 83.5,261.5 C 84.8333,262.167 84.8333,262.167 83.5,261.5 Z"/></g>
<g><path style="opacity:1" fill="#1f4464" d="M 494.5,268.5 C 495.833,269.167 495.833,269.167 494.5,268.5 Z"/></g>
<g><path style="opacity:1" fill="#121f24" d="M 948.5,268.5 C 949.833,269.167 949.833,269.167 948.5,268.5 Z"/></g>
<g><path style="opacity:1" fill="#313231" d="M 83.5,269.5 C 84.8333,270.167 84.8333,270.167 83.5,269.5 Z"/></g>
<g><path style="opacity:1" fill="#121f24" d="M 1090.5,274.5 C 1091.83,275.167 1091.83,275.167 1090.5,274.5 Z"/></g>
<g><path style="opacity:1" fill="#1f4b6a" d="M 494.5,276.5 C 495.833,277.167 495.833,277.167 494.5,276.5 Z"/></g>
<g><path style="opacity:1" fill="#0c1f24" d="M 948.5,276.5 C 949.833,277.167 949.833,277.167 948.5,276.5 Z"/></g>
<g><path style="opacity:1" fill="#181f1e" d="M 1140.5,280.5 C 1141.83,281.167 1141.83,281.167 1140.5,280.5 Z"/></g>
<g><path style="opacity:1" fill="#12252a" d="M 948.5,284.5 C 949.833,285.167 949.833,285.167 948.5,284.5 Z"/></g>
<g><path style="opacity:1" fill="#2a3231" d="M 83.5,285.5 C 84.8333,286.167 84.8333,286.167 83.5,285.5 Z"/></g>
<g><path style="opacity:1" fill="#121f2b" d="M 1089.5,290.5 C 1090.83,291.167 1090.83,291.167 1089.5,290.5 Z"/></g>
<g><path style="opacity:1" fill="#1f5d83" d="M 494.5,292.5 C 495.833,293.167 495.833,293.167 494.5,292.5 Z"/></g>
<g><path style="opacity:1" fill="#122532" d="M 948.5,292.5 C 949.833,293.167 949.833,293.167 948.5,292.5 Z"/></g>
<g><path style="opacity:1" fill="#2a3231" d="M 83.5,293.5 C 84.8333,294.167 84.8333,294.167 83.5,293.5 Z"/></g>
<g><path style="opacity:1" fill="#1f648f" d="M 494.5,300.5 C 495.833,301.167 495.833,301.167 494.5,300.5 Z"/></g>
<g><path style="opacity:1" fill="#122b38" d="M 948.5,308.5 C 949.833,309.167 949.833,309.167 948.5,308.5 Z"/></g>
<g><path style="opacity:1" fill="#2a3231" d="M 83.5,309.5 C 84.8333,310.167 84.8333,310.167 83.5,309.5 Z"/></g>
<g><path style="opacity:1" fill="#181f24" d="M 1189.5,310.5 C 1190.83,311.167 1190.83,311.167 1189.5,310.5 Z"/></g>
<g><path style="opacity:1" fill="#122b38" d="M 997.5,314.5 C 998.833,315.167 998.833,315.167 997.5,314.5 Z"/></g>
<g><path style="opacity:1" fill="#192b38" d="M 1043.5,314.5 C 1044.83,315.167 1044.83,315.167 1043.5,314.5 Z"/></g>
<g><path style="opacity:1" fill="#122b3e" d="M 830.5,316.5 C 831.833,317.167 831.833,317.167 830.5,316.5 Z"/></g>
<g><path style="opacity:1" fill="#122b3e" d="M 948.5,316.5 C 949.833,317.167 949.833,317.167 948.5,316.5 Z"/></g>
<g><path style="opacity:1" fill="#1889ce" d="M 504.5,331.5 C 503.778,330.449 502.778,329.782 501.5,329.5C 501.811,328.522 502.478,327.855 503.5,327.5C 504.429,328.689 504.762,330.022 504.5,331.5 Z"/></g>
<g><path style="opacity:1" fill="#1f8fd4" d="M 494.5,332.5 C 495.833,333.167 495.833,333.167 494.5,332.5 Z"/></g>
<g><path style="opacity:1" fill="#2a2b31" d="M 83.5,333.5 C 84.8333,334.167 84.8333,334.167 83.5,333.5 Z"/></g>
<g><path style="opacity:1" fill="#2a2b31" d="M 83.5,341.5 C 84.8333,342.167 84.8333,342.167 83.5,341.5 Z"/></g>
<g><path style="opacity:1" fill="#193e57" d="M 948.5,344.5 C 949.833,345.167 949.833,345.167 948.5,344.5 Z"/></g>
<g><path style="opacity:1" fill="#123e57" d="M 948.5,348.5 C 949.833,349.167 949.833,349.167 948.5,348.5 Z"/></g>
<g><path style="opacity:1" fill="#313231" d="M 11.5,349.5 C 12.8333,350.167 12.8333,350.167 11.5,349.5 Z"/></g>
<g><path style="opacity:1" fill="#2a2b31" d="M 83.5,349.5 C 84.8333,350.167 84.8333,350.167 83.5,349.5 Z"/></g>
<g><path style="opacity:1" fill="#199be7" d="M 508.5,352.5 C 509.833,353.167 509.833,353.167 508.5,352.5 Z"/></g>
<g><path style="opacity:1" fill="#2a2b31" d="M 83.5,353.5 C 84.8333,354.167 84.8333,354.167 83.5,353.5 Z"/></g>
<g><path style="opacity:1" fill="#2a2b31" d="M 83.5,357.5 C 84.8333,358.167 84.8333,358.167 83.5,357.5 Z"/></g>
<g><path style="opacity:1" fill="#199be7" d="M 439.5,360.5 C 440.833,361.167 440.833,361.167 439.5,360.5 Z"/></g>
<g><path style="opacity:1" fill="#199bed" d="M 508.5,360.5 C 509.833,361.167 509.833,361.167 508.5,360.5 Z"/></g>
<g><path style="opacity:1" fill="#159cf1" d="M 506.5,349.5 C 507.862,360.206 507.529,370.873 505.5,381.5C 506.043,370.841 506.377,360.175 506.5,349.5 Z"/></g>
<g><path style="opacity:1" fill="#2a2b31" d="M 83.5,365.5 C 84.8333,366.167 84.8333,366.167 83.5,365.5 Z"/></g>
<g><path style="opacity:1" fill="#199bed" d="M 435.5,368.5 C 434.833,367.167 434.833,367.167 435.5,368.5 Z"/></g>
<g><path style="opacity:1" fill="#195170" d="M 948.5,372.5 C 949.833,373.167 949.833,373.167 948.5,372.5 Z"/></g>
<g><path style="opacity:1" fill="#19577d" d="M 948.5,380.5 C 949.833,381.167 949.833,381.167 948.5,380.5 Z"/></g>
<g><path style="opacity:1" fill="#313231" d="M 11.5,389.5 C 12.8333,390.167 12.8333,390.167 11.5,389.5 Z"/></g>
<g><path style="opacity:1" fill="#2a2b31" d="M 83.5,389.5 C 84.8333,390.167 84.8333,390.167 83.5,389.5 Z"/></g>
<g><path style="opacity:1" fill="#196a9c" d="M 948.5,404.5 C 949.833,405.167 949.833,405.167 948.5,404.5 Z"/></g>
<g><path style="opacity:1" fill="#243231" d="M 107.5,405.5 C 108.833,406.167 108.833,406.167 107.5,405.5 Z"/></g>
<g><path style="opacity:1" fill="#2a2b31" d="M 83.5,413.5 C 84.8333,414.167 84.8333,414.167 83.5,413.5 Z"/></g>
<g><path style="opacity:1" fill="#1f8fd4" d="M 308.5,417.5 C 309.833,418.167 309.833,418.167 308.5,417.5 Z"/></g>
<g><path style="opacity:1" fill="#1995e1" d="M 315.5,417.5 C 316.833,418.167 316.833,418.167 315.5,417.5 Z"/></g>
<g><path style="opacity:1" fill="#11a7f9" d="M 363.5,473.5 C 356.692,463.185 348.358,455.018 338.5,449C 337.668,448.312 337.002,448.479 336.5,449.5C 345.829,458.834 353.162,469.501 358.5,481.5C 360.616,486.965 361.949,492.632 362.5,498.5C 361.5,498.5 360.5,498.5 359.5,498.5C 333.332,489.522 316.832,472.522 310,447.5C 308.714,442.904 307.881,438.237 307.5,433.5C 307.216,430.223 307.549,427.057 308.5,424C 307.027,423.29 306.36,422.124 306.5,420.5C 322.519,419.22 337.186,423.387 350.5,433C 365.092,446.776 370.926,463.61 368,483.5C 366.214,480.264 364.714,476.93 363.5,473.5 Z"/></g>
<g><path style="opacity:1" fill="#242b31" d="M 83.5,421.5 C 84.8333,422.167 84.8333,422.167 83.5,421.5 Z"/></g>
<g><path style="opacity:1" fill="#1298e9" d="M 306.5,420.5 C 306.36,422.124 307.027,423.29 308.5,424C 307.549,427.057 307.216,430.223 307.5,433.5C 306.567,430.358 305.901,427.024 305.5,423.5C 305.52,422.274 305.853,421.274 306.5,420.5 Z"/></g>
<g><path style="opacity:1" fill="#19a1f3" d="M 372.5,425.5 C 373.833,426.167 373.833,426.167 372.5,425.5 Z"/></g>
<g><path style="opacity:1" fill="#1f76a8" d="M 1089.5,426.5 C 1090.83,427.167 1090.83,427.167 1089.5,426.5 Z"/></g>
<g><path style="opacity:1" fill="#242b31" d="M 84.5,428.5 C 85.8333,429.167 85.8333,429.167 84.5,428.5 Z"/></g>
<g><path style="opacity:1" fill="#19a1fa" d="M 371.5,430.5 C 372.833,431.167 372.833,431.167 371.5,430.5 Z"/></g>
<g><path style="opacity:1" fill="#16b1fa" d="M 375.5,456.5 C 373.795,451.097 373.128,445.43 373.5,439.5C 373.89,436.161 374.39,432.827 375,429.5C 375.167,430.667 375.333,431.833 375.5,433C 374.372,440.692 374.372,448.525 375.5,456.5 Z"/></g>
<g><path style="opacity:1" fill="#10a7f9" d="M 501.5,329.5 C 502.778,329.782 503.778,330.449 504.5,331.5C 505.957,337.401 506.624,343.401 506.5,349.5C 506.377,360.175 506.043,370.841 505.5,381.5C 504.276,405.067 494.943,424.567 477.5,440C 478.094,440.464 478.761,440.631 479.5,440.5C 489.336,441.298 499.336,441.964 509.5,442.5C 511.369,442.493 513.036,442.16 514.5,441.5C 527.162,441.924 539.828,442.257 552.5,442.5C 563.563,442.666 574.563,441.999 585.5,440.5C 589.87,441.371 592.37,444.037 593,448.5C 594.034,456.665 592.034,463.998 587,470.5C 576.812,481.204 565.645,490.537 553.5,498.5C 551.566,499.11 549.899,500.11 548.5,501.5C 527.879,513.816 506.879,525.649 485.5,537C 481.32,539.696 477.32,542.53 473.5,545.5C 471.776,545.461 471.443,545.794 472.5,546.5C 474.588,546.865 476.921,546.865 479.5,546.5C 480.5,546.5 481.5,546.5 482.5,546.5C 482.624,548.952 483.624,550.952 485.5,552.5C 485.333,553.167 485.167,553.833 485,554.5C 483.667,552.5 482,550.833 480,549.5C 476.59,550.874 476.757,551.541 480.5,551.5C 480.286,553.144 480.62,554.644 481.5,556C 480.167,557 478.833,558 477.5,559C 478.448,559.483 479.448,559.649 480.5,559.5C 480.326,561.861 479.993,564.194 479.5,566.5C 473.341,566.966 467.341,566.299 461.5,564.5C 460.808,565.025 460.308,565.692 460,566.5C 459.25,565.874 458.416,565.374 457.5,565C 458.949,563.883 460.616,563.216 462.5,563C 461.128,562.598 459.795,562.098 458.5,561.5C 457.618,562.76 456.618,563.926 455.5,565C 456.641,565.741 456.641,566.575 455.5,567.5C 457.86,567.276 460.194,567.942 462.5,569.5C 458.768,569.984 455.101,570.651 451.5,571.5C 449.712,570.378 447.712,570.211 445.5,571C 441.163,571.905 437.163,573.405 433.5,575.5C 425.435,579.367 417.435,583.534 409.5,588C 406.37,590.128 403.537,592.628 401,595.5C 400.517,596.448 400.351,597.448 400.5,598.5C 397.357,598.031 395.023,596.364 393.5,593.5C 392.848,589.511 392.514,585.677 392.5,582C 393.609,579.953 394.276,577.787 394.5,575.5C 395.343,572.484 396.843,569.817 399,567.5C 406.53,559.635 414.364,552.135 422.5,545C 449.365,523.749 476.698,503.249 504.5,483.5C 510.304,480.421 515.637,476.588 520.5,472C 520.272,471.601 519.938,471.435 519.5,471.5C 514.552,469.754 509.552,469.421 504.5,470.5C 504.167,470.5 503.833,470.5 503.5,470.5C 501.603,469.195 499.269,468.529 496.5,468.5C 493.975,468.503 491.641,468.837 489.5,469.5C 489.167,469.5 488.833,469.5 488.5,469.5C 484.104,467.967 479.437,467.3 474.5,467.5C 468.496,467.767 462.496,468.1 456.5,468.5C 453.41,468.522 450.743,469.188 448.5,470.5C 400.7,477.456 380.2,504.789 387,552.5C 387.465,553.931 388.299,555.097 389.5,556C 389,556.5 388.5,557 388,557.5C 385.9,554.949 384.067,552.283 382.5,549.5C 383.458,549.953 384.292,550.619 385,551.5C 384.959,548.196 384.626,544.863 384,541.5C 383.667,542.833 383.333,544.167 383,545.5C 382,543.5 381,541.5 380,539.5C 379.517,540.448 379.351,541.448 379.5,542.5C 377.59,539.548 376.59,536.214 376.5,532.5C 376.073,526.142 375.407,519.809 374.5,513.5C 375.735,501.803 378.402,490.47 382.5,479.5C 386.96,467.919 393.46,457.586 402,448.5C 407.833,442.667 413.667,436.833 419.5,431C 435.91,419.422 450.91,406.255 464.5,391.5C 449.573,400.684 434.573,410.518 419.5,421C 412.344,426.326 405.677,432.159 399.5,438.5C 390.864,446.463 384.197,455.796 379.5,466.5C 378.883,466.611 378.383,466.944 378,467.5C 376.85,463.888 376.017,460.222 375.5,456.5C 374.372,448.525 374.372,440.692 375.5,433C 375.333,431.833 375.167,430.667 375,429.5C 374.39,432.827 373.89,436.161 373.5,439.5C 373.167,439.5 372.833,439.5 372.5,439.5C 373.604,424.626 379.104,411.626 389,400.5C 395.539,394.292 402.373,388.459 409.5,383C 418.353,378.27 427.02,373.437 435.5,368.5C 455.245,361.628 473.579,352.128 490.5,340C 494.241,336.484 497.908,332.984 501.5,329.5 Z"/></g>
<g><path style="opacity:1" fill="#10a0f6" d="M 479.5,440.5 C 491.433,440.288 503.099,440.621 514.5,441.5C 513.036,442.16 511.369,442.493 509.5,442.5C 499.336,441.964 489.336,441.298 479.5,440.5 Z"/></g>
<g><path style="opacity:1" fill="#19a2ed" d="M 566.5,440.5 C 567.833,441.167 567.833,441.167 566.5,440.5 Z"/></g>
<g><path style="opacity:1" fill="#12a1f3" d="M 563.5,440.5 C 564.833,441.167 564.833,441.167 563.5,440.5 Z"/></g>
<g><path style="opacity:1" fill="#19a1f3" d="M 561.5,440.5 C 562.833,441.167 562.833,441.167 561.5,440.5 Z"/></g>
<g><path style="opacity:1" fill="#12a1f3" d="M 547.5,440.5 C 548.833,441.167 548.833,441.167 547.5,440.5 Z"/></g>
<g><path style="opacity:1" fill="#12a1f3" d="M 545.5,440.5 C 546.833,441.167 546.833,441.167 545.5,440.5 Z"/></g>
<g><path style="opacity:1" fill="#12a1fa" d="M 543.5,440.5 C 544.833,441.167 544.833,441.167 543.5,440.5 Z"/></g>
<g><path style="opacity:1" fill="#12a1f3" d="M 539.5,441.5 C 539.897,440.475 540.563,440.308 541.5,441C 540.906,441.464 540.239,441.631 539.5,441.5 Z"/></g>
<g><path style="opacity:1" fill="#12a1fa" d="M 399.5,438.5 C 400.833,439.167 400.833,439.167 399.5,438.5 Z"/></g>
<g><path style="opacity:1" fill="#12a7fa" d="M 420.5,427.5 C 421.833,428.167 421.833,428.167 420.5,427.5 Z"/></g>
<g><path style="opacity:1" fill="#199bed" d="M 673.5,442.5 C 674.833,443.167 674.833,443.167 673.5,442.5 Z"/></g>
<g><path style="opacity:1" fill="#199be7" d="M 307.5,444.5 C 308.833,445.167 308.833,445.167 307.5,444.5 Z"/></g>
<g><path style="opacity:1" fill="#10a7f9" d="M 681.5,446.5 C 692.541,448.874 699.208,455.541 701.5,466.5C 701.873,473.292 701.206,479.959 699.5,486.5C 699.624,487.107 699.957,487.44 700.5,487.5C 695.443,500.216 686.776,509.716 674.5,516C 668.463,519.123 662.13,521.457 655.5,523C 646.345,525.071 637.345,526.238 628.5,526.5C 629.844,538.697 636.844,546.197 649.5,549C 669.989,551.253 687.655,545.253 702.5,531C 707.984,525.176 713.15,519.009 718,512.5C 720.56,508.536 722.06,504.202 722.5,499.5C 722.2,492.95 721.866,486.283 721.5,479.5C 721.833,479.5 722.167,479.5 722.5,479.5C 723.376,479.631 724.043,479.298 724.5,478.5C 723.85,471.303 723.183,464.136 722.5,457C 724.208,454.957 726.208,453.29 728.5,452C 727.207,451.51 725.873,451.343 724.5,451.5C 728.728,449.896 733.228,448.896 738,448.5C 741.832,448.818 745.332,449.818 748.5,451.5C 742.195,450.513 735.862,450.347 729.5,451C 736.286,451.126 742.953,451.959 749.5,453.5C 751.173,454.343 752.34,455.676 753,457.5C 752.892,462.28 753.725,466.614 755.5,470.5C 755.335,473.85 755.502,477.183 756,480.5C 757.527,477.447 759.027,474.447 760.5,471.5C 767.265,463.067 775.265,456.067 784.5,450.5C 784.56,451.043 784.893,451.376 785.5,451.5C 796.348,446.487 807.682,445.154 819.5,447.5C 824.983,448.57 828.983,451.57 831.5,456.5C 835.138,466.137 837.804,475.804 839.5,485.5C 839.5,496.833 839.5,508.167 839.5,519.5C 838.71,518.391 838.21,517.058 838,515.5C 837.333,522.833 837.333,530.167 838,537.5C 838.278,538.416 838.778,539.082 839.5,539.5C 838.768,546.411 840.434,552.577 844.5,558C 847.628,558.841 850.628,559.675 853.5,560.5C 850.413,560.457 847.413,560.29 844.5,560C 845.126,560.75 845.626,561.584 846,562.5C 846.333,562.167 846.667,561.833 847,561.5C 847.333,562.5 847.667,563.5 848,564.5C 849.741,563.242 851.574,562.242 853.5,561.5C 843.476,572.12 831.142,576.286 816.5,574C 808.778,572.116 804.445,567.282 803.5,559.5C 804.41,561.019 805.243,562.685 806,564.5C 806.167,564 806.333,563.5 806.5,563C 804.968,557.801 804.301,552.467 804.5,547C 805.47,539.809 805.137,532.976 803.5,526.5C 804.501,514.327 804.501,502.16 803.5,490C 803.453,487.705 802.787,485.871 801.5,484.5C 800.301,476.399 795.634,472.899 787.5,474C 784.554,474.806 781.888,476.139 779.5,478C 775.463,481.958 771.796,486.124 768.5,490.5C 764.879,494.071 762.546,498.404 761.5,503.5C 757.963,512.85 755.963,522.517 755.5,532.5C 754.772,544.025 754.105,555.691 753.5,567.5C 752.177,569.686 750.177,571.186 747.5,572C 739.81,573.914 732.144,573.914 724.5,572C 722.65,571.31 721.316,570.144 720.5,568.5C 720.401,557.108 720.567,545.775 721,534.5C 709.627,554.704 692.794,568.038 670.5,574.5C 670.265,573.903 669.765,573.57 669,573.5C 666.654,573.99 664.487,574.657 662.5,575.5C 661.432,576.434 660.099,576.768 658.5,576.5C 648.687,576.064 638.853,574.731 629,572.5C 628.235,572.57 627.735,572.903 627.5,573.5C 624.187,572.179 620.854,570.846 617.5,569.5C 610.416,572.438 603.083,574.438 595.5,575.5C 580.707,576.821 566.04,577.821 551.5,578.5C 549.833,578.5 548.167,578.5 546.5,578.5C 537.432,577.08 528.265,575.413 519,573.5C 517.93,573.528 517.097,573.861 516.5,574.5C 511.674,572.378 506.507,571.045 501,570.5C 499.893,570.585 498.893,570.919 498,571.5C 496.13,570.257 493.964,569.59 491.5,569.5C 481.831,568.256 472.165,568.256 462.5,569.5C 460.194,567.942 457.86,567.276 455.5,567.5C 456.641,566.575 456.641,565.741 455.5,565C 456.618,563.926 457.618,562.76 458.5,561.5C 459.795,562.098 461.128,562.598 462.5,563C 460.616,563.216 458.949,563.883 457.5,565C 458.416,565.374 459.25,565.874 460,566.5C 460.308,565.692 460.808,565.025 461.5,564.5C 467.341,566.299 473.341,566.966 479.5,566.5C 479.993,564.194 480.326,561.861 480.5,559.5C 479.448,559.649 478.448,559.483 477.5,559C 478.833,558 480.167,557 481.5,556C 480.62,554.644 480.286,553.144 480.5,551.5C 476.757,551.541 476.59,550.874 480,549.5C 482,550.833 483.667,552.5 485,554.5C 485.167,553.833 485.333,553.167 485.5,552.5C 483.624,550.952 482.624,548.952 482.5,546.5C 481.5,546.5 480.5,546.5 479.5,546.5C 480.919,545.549 482.585,545.216 484.5,545.5C 496.884,544.171 509.55,544.171 522.5,545.5C 524.5,545.5 526.5,545.5 528.5,545.5C 551.423,553.304 575.09,556.804 599.5,556C 602.849,555.911 603.349,554.744 601,552.5C 600.617,553.056 600.117,553.389 599.5,553.5C 598.066,550.953 596.4,548.619 594.5,546.5C 582.27,515.2 588.27,487.366 612.5,463C 617.476,458.513 622.809,454.513 628.5,451C 632.624,448.793 636.957,447.293 641.5,446.5C 654.829,443.865 668.162,443.865 681.5,446.5 Z M 656.5,465.5 C 661.782,464.967 665.615,466.967 668,471.5C 669.01,477.064 668.343,482.398 666,487.5C 656.296,500.34 643.629,507.673 628,509.5C 627.667,510.167 627.333,510.833 627,511.5C 627.341,494.992 633.507,481.158 645.5,470C 649.053,467.879 652.72,466.379 656.5,465.5 Z"/></g>
<g><path style="opacity:1" fill="#109cf2" d="M 673.5,443.5 C 676.167,444.5 678.833,445.5 681.5,446.5C 668.162,443.865 654.829,443.865 641.5,446.5C 643.877,445.113 646.543,444.279 649.5,444C 657.493,443.5 665.493,443.334 673.5,443.5 Z"/></g>
<g><path style="opacity:1" fill="#199be7" d="M 1043.5,445.5 C 1042.83,444.167 1042.83,444.167 1043.5,445.5 Z"/></g>
<g><path style="opacity:1" fill="#1995e1" d="M 1070.5,444.5 C 1071.83,445.167 1071.83,445.167 1070.5,444.5 Z"/></g>
<g><path style="opacity:1" fill="#129bed" d="M 1069.5,446.5 C 1056.67,445.852 1044,446.852 1031.5,449.5C 1035.41,447.857 1039.41,446.524 1043.5,445.5C 1052.23,444.505 1060.89,444.838 1069.5,446.5 Z"/></g>
<g><path style="opacity:1" fill="#109cf0" d="M 819.5,447.5 C 807.682,445.154 796.348,446.487 785.5,451.5C 784.893,451.376 784.56,451.043 784.5,450.5C 795.896,444.482 807.563,443.482 819.5,447.5 Z"/></g>
<g><path style="opacity:1" fill="#11a7f9" d="M 1069.5,446.5 C 1079.38,447.461 1088.38,450.794 1096.5,456.5C 1096.5,456.833 1096.5,457.167 1096.5,457.5C 1095.76,457.369 1095.09,457.536 1094.5,458C 1095.41,459.699 1095.74,461.533 1095.5,463.5C 1096.5,463.5 1097.5,463.5 1098.5,463.5C 1097.28,469.643 1097.28,475.643 1098.5,481.5C 1097.34,487.651 1097.34,493.651 1098.5,499.5C 1098.5,499.833 1098.5,500.167 1098.5,500.5C 1097.73,501.172 1097.07,502.005 1096.5,503C 1097.81,505.274 1097.81,507.44 1096.5,509.5C 1095.54,519.042 1095.21,529.209 1095.5,540C 1096.64,541.145 1097.64,542.312 1098.5,543.5C 1098.83,543.5 1099.17,543.5 1099.5,543.5C 1102.97,552.781 1109.63,556.447 1119.5,554.5C 1112.61,569.285 1100.94,575.785 1084.5,574C 1081.83,573.33 1079.49,572.163 1077.5,570.5C 1074.09,567.099 1071.09,563.432 1068.5,559.5C 1065.62,551.894 1064.12,543.894 1064,535.5C 1053.33,562.51 1033.49,575.343 1004.5,574C 1000.71,573.126 997.046,571.959 993.5,570.5C 989.122,567.788 985.789,564.122 983.5,559.5C 977.668,547.204 975.501,534.204 977,520.5C 977.121,518.273 977.954,516.44 979.5,515C 979.467,510.734 979.467,506.567 979.5,502.5C 982.485,494.523 986.485,487.19 991.5,480.5C 994.848,477.149 997.848,473.482 1000.5,469.5C 1008.68,459.677 1019.02,453.01 1031.5,449.5C 1044,446.852 1056.67,445.852 1069.5,446.5 Z M 1055.5,470.5 C 1058.54,470.508 1061.54,470.841 1064.5,471.5C 1064.24,490.888 1059.74,509.221 1051,526.5C 1049.3,529.02 1047.47,531.353 1045.5,533.5C 1045.44,532.957 1045.11,532.624 1044.5,532.5C 1043.23,533.257 1043.23,533.923 1044.5,534.5C 1039.94,542.613 1032.94,546.28 1023.5,545.5C 1018.48,543.982 1015.32,540.648 1014,535.5C 1012.34,528.472 1012.17,521.139 1013.5,513.5C 1015.15,508.267 1016.81,502.933 1018.5,497.5C 1021.74,490.697 1025.74,484.363 1030.5,478.5C 1036.73,473.475 1043.89,470.475 1052,469.5C 1053.26,469.648 1054.42,469.982 1055.5,470.5 Z"/></g>
<g><path style="opacity:1" fill="#149ae7" d="M 952.5,448.5 C 952.897,447.475 953.563,447.308 954.5,448C 953.906,448.464 953.239,448.631 952.5,448.5 Z"/></g>
<g><path style="opacity:1" fill="#11a7f9" d="M 877.5,448.5 C 880.949,449.97 884.616,451.136 888.5,452C 890.049,453.214 891.215,454.714 892,456.5C 892.169,471.672 892.669,486.672 893.5,501.5C 893.5,502.167 893.5,502.833 893.5,503.5C 892.047,510.109 891.381,516.942 891.5,524C 891.509,528.557 892.175,532.724 893.5,536.5C 893.328,537.492 893.662,538.158 894.5,538.5C 894.511,540.017 895.177,541.184 896.5,542C 901.94,543.174 906.94,542.174 911.5,539C 922.826,528.183 930.992,515.35 936,500.5C 941.77,484.86 946.104,468.86 949,452.5C 952.737,449.366 957.07,448.033 962,448.5C 966.21,448.644 970.376,449.144 974.5,450C 976.119,450.236 977.119,451.069 977.5,452.5C 975.598,451.489 973.598,451.322 971.5,452C 972.872,452.402 974.205,452.902 975.5,453.5C 976.336,457.085 976.67,460.418 976.5,463.5C 976.167,467.5 975.833,471.5 975.5,475.5C 970.811,500.115 966.311,524.781 962,549.5C 957.533,574.936 946.367,596.77 928.5,615C 920.179,622.494 910.512,627.327 899.5,629.5C 894.652,629.576 889.819,629.909 885,630.5C 880.131,630.026 875.298,629.359 870.5,628.5C 869.341,626.75 867.674,625.75 865.5,625.5C 863.035,622.386 861.035,619.053 859.5,615.5C 859.274,612.751 859.607,610.084 860.5,607.5C 862.333,607.167 864.167,606.833 866,606.5C 868.302,606.6 870.302,607.267 872,608.5C 877.304,606.989 882.471,605.323 887.5,603.5C 911.908,591.719 926.408,572.386 931,545.5C 929.906,547.078 929.072,548.745 928.5,550.5C 918.09,563.482 904.59,571.149 888,573.5C 885.619,572.565 883.119,572.232 880.5,572.5C 880.586,571.504 880.252,570.671 879.5,570C 875.791,569.312 872.457,567.812 869.5,565.5C 866.567,561.943 863.901,558.276 861.5,554.5C 860.054,551.746 859.054,548.746 858.5,545.5C 859.461,543.735 859.795,541.735 859.5,539.5C 859.5,525.5 859.5,511.5 859.5,497.5C 860.573,496.749 860.74,495.749 860,494.5C 859.667,494.833 859.333,495.167 859,495.5C 858.783,490.447 858.283,485.447 857.5,480.5C 857.346,471.183 857.679,461.85 858.5,452.5C 860.221,450.306 862.555,449.139 865.5,449C 869.486,448.501 873.486,448.334 877.5,448.5 Z"/></g>
<g><path style="opacity:1" fill="#1995e1" d="M 948.5,448.5 C 949.833,449.167 949.833,449.167 948.5,448.5 Z"/></g>
<g><path style="opacity:1" fill="#1996da" d="M 1089.5,450.5 C 1090.83,451.167 1090.83,451.167 1089.5,450.5 Z"/></g>
<g><path style="opacity:1" fill="#12b0fa" d="M 748.5,451.5 C 748.833,452.167 749.167,452.833 749.5,453.5C 742.953,451.959 736.286,451.126 729.5,451C 735.862,450.347 742.195,450.513 748.5,451.5 Z"/></g>
<g><path style="opacity:1" fill="#13aefa" d="M 724.5,451.5 C 725.873,451.343 727.207,451.51 728.5,452C 726.208,453.29 724.208,454.957 722.5,457C 723.183,464.136 723.85,471.303 724.5,478.5C 724.043,479.298 723.376,479.631 722.5,479.5C 722.784,471.956 722.45,464.456 721.5,457C 722.124,454.915 723.124,453.082 724.5,451.5 Z"/></g>
<g><path style="opacity:1" fill="#198eda" d="M 1096.5,455.5 C 1097.83,456.167 1097.83,456.167 1096.5,455.5 Z"/></g>
<g><path style="opacity:1" fill="#199be7" d="M 312.5,458.5 C 313.833,459.167 313.833,459.167 312.5,458.5 Z"/></g>
<g><path style="opacity:1" fill="#109cf4" d="M 977.5,452.5 C 978.975,460.315 978.309,467.982 975.5,475.5C 975.833,471.5 976.167,467.5 976.5,463.5C 977.482,460.038 977.815,456.371 977.5,452.5 Z"/></g>
<g><path style="opacity:1" fill="#13b2fa" d="M 977.5,452.5 C 977.815,456.371 977.482,460.038 976.5,463.5C 976.67,460.418 976.336,457.085 975.5,453.5C 974.205,452.902 972.872,452.402 971.5,452C 973.598,451.322 975.598,451.489 977.5,452.5 Z"/></g>
<g><path style="opacity:1" fill="#2a2b31" d="M 83.5,461.5 C 84.8333,462.167 84.8333,462.167 83.5,461.5 Z"/></g>
<g><path style="opacity:1" fill="#12a1f3" d="M 979.5,462.5 C 980.833,463.167 980.833,463.167 979.5,462.5 Z"/></g>
<g><path style="opacity:1" fill="#13a1f8" d="M 372.5,439.5 C 372.833,439.5 373.167,439.5 373.5,439.5C 373.128,445.43 373.795,451.097 375.5,456.5C 376.017,460.222 376.85,463.888 378,467.5C 378.383,466.944 378.883,466.611 379.5,466.5C 379.646,468.942 378.813,469.609 377,468.5C 373.369,459.027 371.869,449.36 372.5,439.5 Z"/></g>
<g><path style="opacity:1" fill="#109ff6" d="M 877.5,448.5 C 891.222,448.403 896.889,455.236 894.5,469C 893.987,479.656 893.653,490.489 893.5,501.5C 892.669,486.672 892.169,471.672 892,456.5C 891.215,454.714 890.049,453.214 888.5,452C 884.616,451.136 880.949,449.97 877.5,448.5 Z"/></g>
<g><path style="opacity:1" fill="#19a1f3" d="M 944.5,463.5 C 945.833,464.167 945.833,464.167 944.5,463.5 Z"/></g>
<g><path style="opacity:1" fill="#1996da" d="M 1101.5,463.5 C 1102.83,464.167 1102.83,464.167 1101.5,463.5 Z"/></g>
<g><path style="opacity:1" fill="#11a1f7" d="M 748.5,451.5 C 751.091,452.254 752.924,453.921 754,456.5C 754.829,461.137 755.329,465.804 755.5,470.5C 753.725,466.614 752.892,462.28 753,457.5C 752.34,455.676 751.173,454.343 749.5,453.5C 749.167,452.833 748.833,452.167 748.5,451.5 Z"/></g>
<g><path style="opacity:1" fill="#15aef9" d="M 1096.5,457.5 C 1097.83,458.167 1098.83,459.167 1099.5,460.5C 1098.91,467.485 1098.58,474.485 1098.5,481.5C 1097.28,475.643 1097.28,469.643 1098.5,463.5C 1097.5,463.5 1096.5,463.5 1095.5,463.5C 1095.74,461.533 1095.41,459.699 1094.5,458C 1095.09,457.536 1095.76,457.369 1096.5,457.5 Z"/></g>
<g><path style="opacity:1" fill="#19a7fa" d="M 380.5,467.5 C 381.833,468.167 381.833,468.167 380.5,467.5 Z"/></g>
<g><path style="opacity:1" fill="#0d9ef8" d="M 488.5,469.5 C 475.138,468.502 461.804,468.835 448.5,470.5C 450.743,469.188 453.41,468.522 456.5,468.5C 462.496,468.1 468.496,467.767 474.5,467.5C 479.437,467.3 484.104,467.967 488.5,469.5 Z"/></g>
<g><path style="opacity:1" fill="#0fa0f7" d="M 1056.5,469.5 C 1055.83,469.5 1055.5,469.833 1055.5,470.5C 1054.42,469.982 1053.26,469.648 1052,469.5C 1043.89,470.475 1036.73,473.475 1030.5,478.5C 1037.61,470.685 1046.28,467.685 1056.5,469.5 Z"/></g>
<g><path style="opacity:1" fill="#0f9ff9" d="M 489.5,469.5 C 491.641,468.837 493.975,468.503 496.5,468.5C 499.269,468.529 501.603,469.195 503.5,470.5C 498.859,469.873 494.193,469.54 489.5,469.5 Z"/></g>
<g><path style="opacity:1" fill="#0d9ffa" d="M 504.5,470.5 C 509.552,469.421 514.552,469.754 519.5,471.5C 514.482,471.387 509.482,471.053 504.5,470.5 Z"/></g>
<g><path style="opacity:1" fill="#11a1f7" d="M 724.5,451.5 C 723.124,453.082 722.124,454.915 721.5,457C 722.45,464.456 722.784,471.956 722.5,479.5C 722.167,479.5 721.833,479.5 721.5,479.5C 721.659,471.217 720.992,463.05 719.5,455C 720.885,453.351 722.551,452.184 724.5,451.5 Z"/></g>
<g><path style="opacity:1" fill="#12a1f3" d="M 943.5,469.5 C 944.833,470.167 944.833,470.167 943.5,469.5 Z"/></g>
<g><path style="opacity:1" fill="#12a1fa" d="M 452.5,470.5 C 453.833,471.167 453.833,471.167 452.5,470.5 Z"/></g>
<g><path style="opacity:1" fill="#0ca7fa" d="M 456.5,470.5 C 457.833,471.167 457.833,471.167 456.5,470.5 Z"/></g>
<g><path style="opacity:1" fill="#12a1fa" d="M 459.5,471.5 C 459.897,470.475 460.563,470.308 461.5,471C 460.906,471.464 460.239,471.631 459.5,471.5 Z"/></g>
<g><path style="opacity:1" fill="#12a1fa" d="M 484.5,470.5 C 485.833,471.167 485.833,471.167 484.5,470.5 Z"/></g>
<g><path style="opacity:1" fill="#12a1fa" d="M 492.5,470.5 C 493.833,471.167 493.833,471.167 492.5,470.5 Z"/></g>
<g><path style="opacity:1" fill="#12a7fa" d="M 760.5,471.5 C 759.833,470.167 759.833,470.167 760.5,471.5 Z"/></g>
<g><path style="opacity:1" fill="#13affa" d="M 363.5,473.5 C 364.105,471.974 365.271,470.974 367,470.5C 367.667,473.167 367.667,475.833 367,478.5C 366.303,476.416 365.136,474.749 363.5,473.5 Z"/></g>
<g><path style="opacity:1" fill="#0f9bf2" d="M 1000.5,469.5 C 997.848,473.482 994.848,477.149 991.5,480.5C 993.456,475.887 996.456,472.22 1000.5,469.5 Z"/></g>
<g><path style="opacity:1" fill="#2a2b31" d="M 83.5,477.5 C 84.8333,478.167 84.8333,478.167 83.5,477.5 Z"/></g>
<g><path style="opacity:1" fill="#199bed" d="M 322.5,477.5 C 323.833,478.167 323.833,478.167 322.5,477.5 Z"/></g>
<g><path style="opacity:1" fill="#2a2b31" d="M 83.5,481.5 C 84.8333,482.167 84.8333,482.167 83.5,481.5 Z"/></g>
<g><path style="opacity:1" fill="#199be7" d="M 1100.5,481.5 C 1101.83,482.167 1101.83,482.167 1100.5,481.5 Z"/></g>
<g><path style="opacity:1" fill="#12a7fa" d="M 504.5,483.5 C 503.833,482.167 503.833,482.167 504.5,483.5 Z"/></g>
<g><path style="opacity:1" fill="#11a1f8" d="M 831.5,456.5 C 834.357,459.546 836.19,463.213 837,467.5C 838.325,473.434 839.158,479.434 839.5,485.5C 837.804,475.804 835.138,466.137 831.5,456.5 Z"/></g>
<g><path style="opacity:1" fill="#129aee" d="M 1099.5,460.5 C 1100.16,461.793 1100.49,463.293 1100.5,465C 1099.48,476.76 1098.82,488.26 1098.5,499.5C 1097.34,493.651 1097.34,487.651 1098.5,481.5C 1098.58,474.485 1098.91,467.485 1099.5,460.5 Z"/></g>
<g><path style="opacity:1" fill="#313231" d="M 11.5,485.5 C 12.8333,486.167 12.8333,486.167 11.5,485.5 Z"/></g>
<g><path style="opacity:1" fill="#2a2b31" d="M 83.5,485.5 C 84.8333,486.167 84.8333,486.167 83.5,485.5 Z"/></g>
<g><path style="opacity:1" fill="#0e9ff9" d="M 701.5,466.5 C 702.961,473.481 702.628,480.481 700.5,487.5C 699.957,487.44 699.624,487.107 699.5,486.5C 701.206,479.959 701.873,473.292 701.5,466.5 Z"/></g>
<g><path style="opacity:1" fill="#119ff8" d="M 358.5,481.5 C 359.117,481.611 359.617,481.944 360,482.5C 362.801,488.34 363.967,494.34 363.5,500.5C 361.974,500.006 360.641,499.339 359.5,498.5C 360.5,498.5 361.5,498.5 362.5,498.5C 361.949,492.632 360.616,486.965 358.5,481.5 Z"/></g>
<g><path style="opacity:1" fill="#2a3231" d="M 83.5,493.5 C 84.8333,494.167 84.8333,494.167 83.5,493.5 Z"/></g>
<g><path style="opacity:1" fill="#0f9df5" d="M 768.5,490.5 C 766.417,495 764.084,499.334 761.5,503.5C 762.546,498.404 764.879,494.071 768.5,490.5 Z"/></g>
<g><path style="opacity:1" fill="#12affa" d="M 859.5,497.5 C 859.5,511.5 859.5,525.5 859.5,539.5C 858.816,533.099 858.15,526.599 857.5,520C 858.122,511.829 858.789,504.329 859.5,497.5 Z"/></g>
<g><path style="opacity:1" fill="#12a7fa" d="M 553.5,498.5 C 554.833,499.167 554.833,499.167 553.5,498.5 Z"/></g>
<g><path style="opacity:1" fill="#19a1f3" d="M 359.5,500.5 C 360.833,501.167 360.833,501.167 359.5,500.5 Z"/></g>
<g><path style="opacity:1" fill="#2a3231" d="M 83.5,501.5 C 84.8333,502.167 84.8333,502.167 83.5,501.5 Z"/></g>
<g><path style="opacity:1" fill="#12a1fa" d="M 548.5,501.5 C 549.833,502.167 549.833,502.167 548.5,501.5 Z"/></g>
<g><path style="opacity:1" fill="#109df6" d="M 1018.5,497.5 C 1016.81,502.933 1015.15,508.267 1013.5,513.5C 1013.6,507.552 1015.26,502.218 1018.5,497.5 Z"/></g>
<g><path style="opacity:1" fill="#19a7fa" d="M 372.5,504.5 C 373.833,505.167 373.833,505.167 372.5,504.5 Z"/></g>
<g><path style="opacity:1" fill="#199bed" d="M 1099.5,504.5 C 1100.83,505.167 1100.83,505.167 1099.5,504.5 Z"/></g>
<g><path style="opacity:1" fill="#139ef4" d="M 382.5,479.5 C 378.402,490.47 375.735,501.803 374.5,513.5C 375.407,519.809 376.073,526.142 376.5,532.5C 374.725,525.51 373.391,518.343 372.5,511C 374.29,505.048 375.79,498.882 377,492.5C 378.334,487.846 380.167,483.513 382.5,479.5 Z"/></g>
<g><path style="opacity:1" fill="#19a7fa" d="M 586.5,508.5 C 587.833,509.167 587.833,509.167 586.5,508.5 Z"/></g>
<g><path style="opacity:1" fill="#2a3231" d="M 83.5,509.5 C 84.8333,510.167 84.8333,510.167 83.5,509.5 Z"/></g>
<g><path style="opacity:1" fill="#19a7fa" d="M 585.5,514.5 C 586.833,515.167 586.833,515.167 585.5,514.5 Z"/></g>
<g><path style="opacity:1" fill="#0fa2f9" d="M 858.5,452.5 C 857.679,461.85 857.346,471.183 857.5,480.5C 858.283,485.447 858.783,490.447 859,495.5C 859.333,495.167 859.667,494.833 860,494.5C 860.74,495.749 860.573,496.749 859.5,497.5C 858.789,504.329 858.122,511.829 857.5,520C 858.15,526.599 858.816,533.099 859.5,539.5C 859.795,541.735 859.461,543.735 858.5,545.5C 857.106,535.895 856.439,526.229 856.5,516.5C 856.98,495.51 857.146,474.51 857,453.5C 857.383,452.944 857.883,452.611 858.5,452.5 Z"/></g>
<g><path style="opacity:1" fill="#129df2" d="M 1098.5,500.5 C 1096.94,514.885 1097.27,529.218 1099.5,543.5C 1099.17,543.5 1098.83,543.5 1098.5,543.5C 1096.74,532.254 1096.08,520.921 1096.5,509.5C 1097.81,507.44 1097.81,505.274 1096.5,503C 1097.07,502.005 1097.73,501.172 1098.5,500.5 Z"/></g>
<g><path style="opacity:1" fill="#10a2f9" d="M 893.5,503.5 C 892.434,514.564 892.434,525.564 893.5,536.5C 892.175,532.724 891.509,528.557 891.5,524C 891.381,516.942 892.047,510.109 893.5,503.5 Z"/></g>
<g><path style="opacity:1" fill="#19a1f3" d="M 372.5,521.5 C 373.833,522.167 373.833,522.167 372.5,521.5 Z"/></g>
<g><path style="opacity:1" fill="#0fa0f8" d="M 979.5,502.5 C 979.467,506.567 979.467,510.734 979.5,515C 977.954,516.44 977.121,518.273 977,520.5C 975.501,534.204 977.668,547.204 983.5,559.5C 978.752,553.432 976.252,546.432 976,538.5C 974.776,526.251 975.942,514.251 979.5,502.5 Z"/></g>
<g><path style="opacity:1" fill="#19a7fa" d="M 513.5,522.5 C 514.833,523.167 514.833,523.167 513.5,522.5 Z"/></g>
<g><path style="opacity:1" fill="#2a3231" d="M 83.5,525.5 C 84.8333,526.167 84.8333,526.167 83.5,525.5 Z"/></g>
<g><path style="opacity:1" fill="#19a2ed" d="M 372.5,526.5 C 373.833,527.167 373.833,527.167 372.5,526.5 Z"/></g>
<g><path style="opacity:1" fill="#12a7fa" d="M 628.5,526.5 C 629.833,527.167 629.833,527.167 628.5,526.5 Z"/></g>
<g><path style="opacity:1" fill="#12a1fa" d="M 800.5,526.5 C 801.833,527.167 801.833,527.167 800.5,526.5 Z"/></g>
<g><path style="opacity:1" fill="#10a1f8" d="M 839.5,519.5 C 839.5,526.167 839.5,532.833 839.5,539.5C 838.778,539.082 838.278,538.416 838,537.5C 837.333,530.167 837.333,522.833 838,515.5C 838.21,517.058 838.71,518.391 839.5,519.5 Z"/></g>
<g><path style="opacity:1" fill="#15b1fa" d="M 1096.5,509.5 C 1096.08,520.921 1096.74,532.254 1098.5,543.5C 1097.64,542.312 1096.64,541.145 1095.5,540C 1095.21,529.209 1095.54,519.042 1096.5,509.5 Z"/></g>
<g><path style="opacity:1" fill="#12a7fa" d="M 966.5,529.5 C 967.833,530.167 967.833,530.167 966.5,529.5 Z"/></g>
<g><path style="opacity:1" fill="#19a7fa" d="M 587.5,531.5 C 588.833,532.167 588.833,532.167 587.5,531.5 Z"/></g>
<g><path style="opacity:1" fill="#19a3fa" d="M 1045.5,533.5 C 1044.83,533.5 1044.5,533.833 1044.5,534.5C 1043.23,533.923 1043.23,533.257 1044.5,532.5C 1045.11,532.624 1045.44,532.957 1045.5,533.5 Z"/></g>
<g><path style="opacity:1" fill="#2a3231" d="M 83.5,533.5 C 84.8333,534.167 84.8333,534.167 83.5,533.5 Z"/></g>
<g><path style="opacity:1" fill="#12a7fa" d="M 965.5,535.5 C 966.833,536.167 966.833,536.167 965.5,535.5 Z"/></g>
<g><path style="opacity:1" fill="#19a7fa" d="M 494.5,536.5 C 495.833,537.167 495.833,537.167 494.5,536.5 Z"/></g>
<g><path style="opacity:1" fill="#2a3231" d="M 83.5,537.5 C 84.8333,538.167 84.8333,538.167 83.5,537.5 Z"/></g>
<g><path style="opacity:1" fill="#12a5fa" d="M 894.5,538.5 C 894.369,537.761 894.536,537.094 895,536.5C 895.692,537.437 895.525,538.103 894.5,538.5 Z"/></g>
<g><path style="opacity:1" fill="#0da0f8" d="M 755.5,532.5 C 755.667,543.505 755.5,554.505 755,565.5C 754.722,566.416 754.222,567.082 753.5,567.5C 754.105,555.691 754.772,544.025 755.5,532.5 Z"/></g>
<g><path style="opacity:1" fill="#12a7fa" d="M 855.5,538.5 C 856.833,539.167 856.833,539.167 855.5,538.5 Z"/></g>
<g><path style="opacity:1" fill="#2a3231" d="M 84.5,540.5 C 85.8333,541.167 85.8333,541.167 84.5,540.5 Z"/></g>
<g><path style="opacity:1" fill="#19a7fa" d="M 490.5,540.5 C 491.833,541.167 491.833,541.167 490.5,540.5 Z"/></g>
<g><path style="opacity:1" fill="#19a7fa" d="M 495.5,541.5 C 494.833,540.167 494.833,540.167 495.5,541.5 Z"/></g>
<g><path style="opacity:1" fill="#17b0fa" d="M 382.5,549.5 C 382.293,546.759 381.293,544.426 379.5,542.5C 379.351,541.448 379.517,540.448 380,539.5C 381,541.5 382,543.5 383,545.5C 383.333,544.167 383.667,542.833 384,541.5C 384.626,544.863 384.959,548.196 385,551.5C 384.292,550.619 383.458,549.953 382.5,549.5 Z"/></g>
<g><path style="opacity:1" fill="#10a1f7" d="M 495.5,541.5 C 506.795,541.531 517.795,542.865 528.5,545.5C 526.5,545.5 524.5,545.5 522.5,545.5C 515.897,544.006 509.064,543.339 502,543.5C 497.5,543.667 493,543.833 488.5,544C 486.942,544.21 485.609,544.71 484.5,545.5C 482.585,545.216 480.919,545.549 479.5,546.5C 476.921,546.865 474.588,546.865 472.5,546.5C 473.167,546.5 473.5,546.167 473.5,545.5C 480.949,544.149 488.282,542.816 495.5,541.5 Z"/></g>
<g><path style="opacity:1" fill="#109ff8" d="M 801.5,484.5 C 802.787,485.871 803.453,487.705 803.5,490C 804.501,502.16 804.501,514.327 803.5,526.5C 803.5,537.5 803.5,548.5 803.5,559.5C 802.807,555.435 802.14,551.268 801.5,547C 802.093,533.19 802.76,519.19 803.5,505C 802.816,498.168 802.149,491.334 801.5,484.5 Z"/></g>
<g><path style="opacity:1" fill="#12a7fa" d="M 964.5,542.5 C 965.833,543.167 965.833,543.167 964.5,542.5 Z"/></g>
<g><path style="opacity:1" fill="#139aef" d="M 379.5,542.5 C 381.293,544.426 382.293,546.759 382.5,549.5C 380.707,547.574 379.707,545.241 379.5,542.5 Z"/></g>
<g><path style="opacity:1" fill="#12b2fa" d="M 522.5,545.5 C 509.55,544.171 496.884,544.171 484.5,545.5C 485.609,544.71 486.942,544.21 488.5,544C 493,543.833 497.5,543.667 502,543.5C 509.064,543.339 515.897,544.006 522.5,545.5 Z"/></g>
<g><path style="opacity:1" fill="#12a7fa" d="M 640.5,543.5 C 641.833,544.167 641.833,544.167 640.5,543.5 Z"/></g>
<g><path style="opacity:1" fill="#13affa" d="M 803.5,526.5 C 805.137,532.976 805.47,539.809 804.5,547C 804.301,552.467 804.968,557.801 806.5,563C 806.333,563.5 806.167,564 806,564.5C 805.243,562.685 804.41,561.019 803.5,559.5C 803.5,548.5 803.5,537.5 803.5,526.5 Z"/></g>
<g><path style="opacity:1" fill="#11a0f8" d="M 1044.5,534.5 C 1045.24,534.369 1045.91,534.536 1046.5,535C 1040.96,544.116 1033.3,547.616 1023.5,545.5C 1032.94,546.28 1039.94,542.613 1044.5,534.5 Z"/></g>
<g><path style="opacity:1" fill="#12a7fa" d="M 545.5,546.5 C 546.833,547.167 546.833,547.167 545.5,546.5 Z"/></g>
<g><path style="opacity:1" fill="#12a7fa" d="M 594.5,546.5 C 593.833,547.167 593.833,547.167 594.5,546.5 Z"/></g>
<g><path style="opacity:1" fill="#1995e7" d="M 380.5,550.5 C 381.833,551.167 381.833,551.167 380.5,550.5 Z"/></g>
<g><path style="opacity:1" fill="#19a8f3" d="M 928.5,550.5 C 929.833,551.167 929.833,551.167 928.5,550.5 Z"/></g>
<g><path style="opacity:1" fill="#12a7fa" d="M 568.5,551.5 C 569.833,552.167 569.833,552.167 568.5,551.5 Z"/></g>
<g><path style="opacity:1" fill="#12b0fa" d="M 722.5,543.5 C 723.097,543.735 723.43,544.235 723.5,545C 722.721,551.797 722.221,558.63 722,565.5C 721.237,558.118 721.403,550.784 722.5,543.5 Z"/></g>
<g><path style="opacity:1" fill="#129be7" d="M 1108.5,551.5 C 1109.83,552.167 1109.83,552.167 1108.5,551.5 Z"/></g>
<g><path style="opacity:1" fill="#128eda" d="M 1116.5,551.5 C 1117.83,552.167 1117.83,552.167 1116.5,551.5 Z"/></g>
<g><path style="opacity:1" fill="#1995e1" d="M 1111.5,552.5 C 1112.83,553.167 1112.83,553.167 1111.5,552.5 Z"/></g>
<g><path style="opacity:1" fill="#0fa0f7" d="M 528.5,545.5 C 543.457,548.488 558.457,551.322 573.5,554C 580.805,554.614 587.972,555.114 595,555.5C 596.622,554.901 598.122,554.234 599.5,553.5C 600.117,553.389 600.617,553.056 601,552.5C 603.349,554.744 602.849,555.911 599.5,556C 575.09,556.804 551.423,553.304 528.5,545.5 Z"/></g>
<g><path style="opacity:1" fill="#12a7fa" d="M 579.5,552.5 C 580.833,553.167 580.833,553.167 579.5,552.5 Z"/></g>
<g><path style="opacity:1" fill="#19a7fa" d="M 960.5,558.5 C 961.833,559.167 961.833,559.167 960.5,558.5 Z"/></g>
<g><path style="opacity:1" fill="#14b0f9" d="M 853.5,560.5 C 853.5,560.833 853.5,561.167 853.5,561.5C 851.574,562.242 849.741,563.242 848,564.5C 847.667,563.5 847.333,562.5 847,561.5C 846.667,561.833 846.333,562.167 846,562.5C 845.626,561.584 845.126,560.75 844.5,560C 847.413,560.29 850.413,560.457 853.5,560.5 Z"/></g>
<g><path style="opacity:1" fill="#199bed" d="M 1042.5,565.5 C 1043.83,566.167 1043.83,566.167 1042.5,565.5 Z"/></g>
<g><path style="opacity:1" fill="#109df5" d="M 861.5,554.5 C 863.901,558.276 866.567,561.943 869.5,565.5C 872.457,567.812 875.791,569.312 879.5,570C 880.252,570.671 880.586,571.504 880.5,572.5C 870.443,570.325 864.11,564.325 861.5,554.5 Z"/></g>
<g><path style="opacity:1" fill="#19a2ed" d="M 720.5,568.5 C 719.833,569.167 719.833,569.167 720.5,568.5 Z"/></g>
<g><path style="opacity:1" fill="#129bf2" d="M 1068.5,559.5 C 1071.09,563.432 1074.09,567.099 1077.5,570.5C 1072.7,568.362 1069.7,564.695 1068.5,559.5 Z"/></g>
<g><path style="opacity:1" fill="#19a1f3" d="M 465.5,570.5 C 466.833,571.167 466.833,571.167 465.5,570.5 Z"/></g>
<g><path style="opacity:1" fill="#19a1f3" d="M 489.5,570.5 C 490.833,571.167 490.833,571.167 489.5,570.5 Z"/></g>
<g><path style="opacity:1" fill="#19a1f3" d="M 491.5,570.5 C 492.833,571.167 492.833,571.167 491.5,570.5 Z"/></g>
<g><path style="opacity:1" fill="#19a1f3" d="M 493.5,571.5 C 493.897,570.475 494.563,570.308 495.5,571C 494.906,571.464 494.239,571.631 493.5,571.5 Z"/></g>
<g><path style="opacity:1" fill="#19a1f3" d="M 617.5,570.5 C 618.833,571.167 618.833,571.167 617.5,570.5 Z"/></g>
<g><path style="opacity:1" fill="#19a1f3" d="M 993.5,570.5 C 992.833,571.167 992.833,571.167 993.5,570.5 Z"/></g>
<g><path style="opacity:1" fill="#2a3231" d="M 84.5,572.5 C 85.8333,573.167 85.8333,573.167 84.5,572.5 Z"/></g>
<g><path style="opacity:1" fill="#12a1f3" d="M 448.5,572.5 C 449.239,572.369 449.906,572.536 450.5,573C 449.563,573.692 448.897,573.525 448.5,572.5 Z"/></g>
<g><path style="opacity:1" fill="#19a1f3" d="M 494.5,572.5 C 495.833,573.167 495.833,573.167 494.5,572.5 Z"/></g>
<g><path style="opacity:1" fill="#2a3231" d="M 84.5,573.5 C 83.8333,574.167 83.8333,574.167 84.5,573.5 Z"/></g>
<g><path style="opacity:1" fill="#19a1f3" d="M 511.5,573.5 C 512.833,574.167 512.833,574.167 511.5,573.5 Z"/></g>
<g><path style="opacity:1" fill="#199bed" d="M 725.5,573.5 C 726.833,574.167 726.833,574.167 725.5,573.5 Z"/></g>
<g><path style="opacity:1" fill="#19a1f3" d="M 836.5,573.5 C 837.833,574.167 837.833,574.167 836.5,573.5 Z"/></g>
<g><path style="opacity:1" fill="#12a1f3" d="M 882.5,573.5 C 883.833,574.167 883.833,574.167 882.5,573.5 Z"/></g>
<g><path style="opacity:1" fill="#12a1fa" d="M 892.5,574.5 C 892.897,573.475 893.563,573.308 894.5,574C 893.906,574.464 893.239,574.631 892.5,574.5 Z"/></g>
<g><path style="opacity:1" fill="#199bed" d="M 994.5,573.5 C 995.833,574.167 995.833,574.167 994.5,573.5 Z"/></g>
<g><path style="opacity:1" fill="#0f9df6" d="M 451.5,571.5 C 450.209,571.263 449.209,571.596 448.5,572.5C 443.4,573.025 438.4,574.025 433.5,575.5C 437.163,573.405 441.163,571.905 445.5,571C 447.712,570.211 449.712,570.378 451.5,571.5 Z"/></g>
<g><path style="opacity:1" fill="#19a1f3" d="M 516.5,574.5 C 517.833,575.167 517.833,575.167 516.5,574.5 Z"/></g>
<g><path style="opacity:1" fill="#0d98f4" d="M 670.5,574.5 C 667.904,575.265 665.237,575.599 662.5,575.5C 664.487,574.657 666.654,573.99 669,573.5C 669.765,573.57 670.265,573.903 670.5,574.5 Z"/></g>
<g><path style="opacity:1" fill="#129bed" d="M 736.5,574.5 C 737.833,575.167 737.833,575.167 736.5,574.5 Z"/></g>
<g><path style="opacity:1" fill="#242b31" d="M 158.5,575.5 C 159.833,576.167 159.833,576.167 158.5,575.5 Z"/></g>
<g><path style="opacity:1" fill="#129df1" d="M 627.5,573.5 C 627.735,572.903 628.235,572.57 629,572.5C 638.853,574.731 648.687,576.064 658.5,576.5C 647.984,577.071 637.65,576.071 627.5,573.5 Z"/></g>
<g><path style="opacity:1" fill="#2a3231" d="M 83.5,577.5 C 84.8333,578.167 84.8333,578.167 83.5,577.5 Z"/></g>
<g><path style="opacity:1" fill="#139ef5" d="M 595.5,575.5 C 591.409,576.895 587.076,577.728 582.5,578C 572.172,578.5 561.839,578.666 551.5,578.5C 566.04,577.821 580.707,576.821 595.5,575.5 Z"/></g>
<g><path style="opacity:1" fill="#199bed" d="M 546.5,578.5 C 545.833,579.167 545.833,579.167 546.5,578.5 Z"/></g>
<g><path style="opacity:1" fill="#1197ec" d="M 394.5,575.5 C 394.276,577.787 393.609,579.953 392.5,582C 392.514,585.677 392.848,589.511 393.5,593.5C 392.027,590.983 391.36,588.15 391.5,585C 391.105,581.287 392.105,578.12 394.5,575.5 Z"/></g>
<g><path style="opacity:1" fill="#313231" d="M 83.5,581.5 C 84.8333,582.167 84.8333,582.167 83.5,581.5 Z"/></g>
<g><path style="opacity:1" fill="#199bed" d="M 948.5,592.5 C 949.833,593.167 949.833,593.167 948.5,592.5 Z"/></g>
<g><path style="opacity:1" fill="#313231" d="M 83.5,605.5 C 84.8333,606.167 84.8333,606.167 83.5,605.5 Z"/></g>
<g><path style="opacity:1" fill="#119ef2" d="M 887.5,603.5 C 882.471,605.323 877.304,606.989 872,608.5C 870.302,607.267 868.302,606.6 866,606.5C 864.167,606.833 862.333,607.167 860.5,607.5C 859.607,610.084 859.274,612.751 859.5,615.5C 856.643,605.362 860.31,602.028 870.5,605.5C 876.265,605.533 881.932,604.866 887.5,603.5 Z"/></g>
<g><path style="opacity:1" fill="#2a3231" d="M 146.5,612.5 C 147.833,613.167 147.833,613.167 146.5,612.5 Z"/></g>
<g><path style="opacity:1" fill="#1995e1" d="M 922.5,620.5 C 923.833,621.167 923.833,621.167 922.5,620.5 Z"/></g>
<g><path style="opacity:1" fill="#313837" d="M 83.5,621.5 C 84.8333,622.167 84.8333,622.167 83.5,621.5 Z"/></g>
<g><path style="opacity:1" fill="#1097e9" d="M 859.5,615.5 C 861.035,619.053 863.035,622.386 865.5,625.5C 861.498,623.515 859.498,620.182 859.5,615.5 Z"/></g>
<g><path style="opacity:1" fill="#129aec" d="M 865.5,625.5 C 867.674,625.75 869.341,626.75 870.5,628.5C 868.067,628.727 866.401,627.727 865.5,625.5 Z"/></g>
<g><path style="opacity:1" fill="#1f7dbb" d="M 948.5,628.5 C 949.833,629.167 949.833,629.167 948.5,628.5 Z"/></g>
<g><path style="opacity:1" fill="#313237" d="M 83.5,629.5 C 84.8333,630.167 84.8333,630.167 83.5,629.5 Z"/></g>
<g><path style="opacity:1" fill="#0e97ec" d="M 870.5,628.5 C 875.298,629.359 880.131,630.026 885,630.5C 889.819,629.909 894.652,629.576 899.5,629.5C 895.246,630.895 890.746,631.561 886,631.5C 880.474,631.694 875.307,630.694 870.5,628.5 Z"/></g>
<g><path style="opacity:1" fill="#3d3e3d" d="M 11.5,637.5 C 12.8333,638.167 12.8333,638.167 11.5,637.5 Z"/></g>
<g><path style="opacity:1" fill="#313237" d="M 83.5,637.5 C 84.8333,638.167 84.8333,638.167 83.5,637.5 Z"/></g>
<g><path style="opacity:1" fill="#194464" d="M 1089.5,650.5 C 1090.83,651.167 1090.83,651.167 1089.5,650.5 Z"/></g>
<g><path style="opacity:1" fill="#313837" d="M 83.5,657.5 C 84.8333,658.167 84.8333,658.167 83.5,657.5 Z"/></g>
<g><path style="opacity:1" fill="#313837" d="M 84.5,660.5 C 85.8333,661.167 85.8333,661.167 84.5,660.5 Z"/></g>
<g><path style="opacity:1" fill="#194464" d="M 494.5,660.5 C 495.833,661.167 495.833,661.167 494.5,660.5 Z"/></g>
<g><path style="opacity:1" fill="#195d83" d="M 948.5,660.5 C 949.833,661.167 949.833,661.167 948.5,660.5 Z"/></g>
<g><path style="opacity:1" fill="#313837" d="M 84.5,661.5 C 83.8333,662.167 83.8333,662.167 84.5,661.5 Z"/></g>
<g><path style="opacity:1" fill="#313837" d="M 83.5,665.5 C 84.8333,666.167 84.8333,666.167 83.5,665.5 Z"/></g>
<g><path style="opacity:1" fill="#195176" d="M 948.5,668.5 C 949.833,669.167 949.833,669.167 948.5,668.5 Z"/></g>
<g><path style="opacity:1" fill="#373837" d="M 83.5,669.5 C 84.8333,670.167 84.8333,670.167 83.5,669.5 Z"/></g>
<g><path style="opacity:1" fill="#194b6a" d="M 948.5,676.5 C 949.833,677.167 949.833,677.167 948.5,676.5 Z"/></g>
<g><path style="opacity:1" fill="#19324b" d="M 494.5,684.5 C 495.833,685.167 495.833,685.167 494.5,684.5 Z"/></g>
<g><path style="opacity:1" fill="#194b64" d="M 948.5,684.5 C 949.833,685.167 949.833,685.167 948.5,684.5 Z"/></g>
<g><path style="opacity:1" fill="#373837" d="M 83.5,685.5 C 84.8333,686.167 84.8333,686.167 83.5,685.5 Z"/></g>
<g><path style="opacity:1" fill="#123e51" d="M 997.5,690.5 C 998.833,691.167 998.833,691.167 997.5,690.5 Z"/></g>
<g><path style="opacity:1" fill="#123e57" d="M 948.5,692.5 C 949.833,693.167 949.833,693.167 948.5,692.5 Z"/></g>
<g><path style="opacity:1" fill="#37383d" d="M 83.5,693.5 C 84.8333,694.167 84.8333,694.167 83.5,693.5 Z"/></g>
<g><path style="opacity:1" fill="#122b3e" d="M 494.5,700.5 C 495.833,701.167 495.833,701.167 494.5,700.5 Z"/></g>
<g><path style="opacity:1" fill="#123851" d="M 948.5,700.5 C 949.833,701.167 949.833,701.167 948.5,700.5 Z"/></g>
<g><path style="opacity:1" fill="#37383d" d="M 83.5,701.5 C 84.8333,702.167 84.8333,702.167 83.5,701.5 Z"/></g>
<g><path style="opacity:1" fill="#12384b" d="M 948.5,708.5 C 949.833,709.167 949.833,709.167 948.5,708.5 Z"/></g>
<g><path style="opacity:1" fill="#373e3d" d="M 83.5,709.5 C 84.8333,710.167 84.8333,710.167 83.5,709.5 Z"/></g>
<g><path style="opacity:1" fill="#12323e" d="M 948.5,716.5 C 949.833,717.167 949.833,717.167 948.5,716.5 Z"/></g>
<g><path style="opacity:1" fill="#3d3e3d" d="M 83.5,717.5 C 84.8333,718.167 84.8333,718.167 83.5,717.5 Z"/></g>
<g><path style="opacity:1" fill="#313837" d="M 131.5,717.5 C 132.833,718.167 132.833,718.167 131.5,717.5 Z"/></g>
<g><path style="opacity:1" fill="#313231" d="M 179.5,717.5 C 180.833,718.167 180.833,718.167 179.5,717.5 Z"/></g>
<g><path style="opacity:1" fill="#3d3e3d" d="M 84.5,724.5 C 85.8333,725.167 85.8333,725.167 84.5,724.5 Z"/></g>
<g><path style="opacity:1" fill="#122b3e" d="M 948.5,724.5 C 949.833,725.167 949.833,725.167 948.5,724.5 Z"/></g>
<g><path style="opacity:1" fill="#3d3e3d" d="M 84.5,725.5 C 83.8333,726.167 83.8333,726.167 84.5,725.5 Z"/></g>
<g><path style="opacity:1" fill="#122b38" d="M 948.5,732.5 C 949.833,733.167 949.833,733.167 948.5,732.5 Z"/></g>
<g><path style="opacity:1" fill="#3d3e3d" d="M 83.5,733.5 C 84.8333,734.167 84.8333,734.167 83.5,733.5 Z"/></g>
<g><path style="opacity:1" fill="#121f24" d="M 494.5,740.5 C 495.833,741.167 495.833,741.167 494.5,740.5 Z"/></g>
<g><path style="opacity:1" fill="#0c2532" d="M 948.5,740.5 C 949.833,741.167 949.833,741.167 948.5,740.5 Z"/></g>
<g><path style="opacity:1" fill="#3d3e3d" d="M 83.5,741.5 C 84.8333,742.167 84.8333,742.167 83.5,741.5 Z"/></g>
<g><path style="opacity:1" fill="#313231" d="M 179.5,741.5 C 180.833,742.167 180.833,742.167 179.5,741.5 Z"/></g>
<g><path style="opacity:1" fill="#12252a" d="M 1043.5,741.5 C 1044.83,742.167 1044.83,742.167 1043.5,741.5 Z"/></g>
<g><path style="opacity:1" fill="#121f24" d="M 494.5,748.5 C 495.833,749.167 495.833,749.167 494.5,748.5 Z"/></g>
<g><path style="opacity:1" fill="#0c252a" d="M 948.5,748.5 C 949.833,749.167 949.833,749.167 948.5,748.5 Z"/></g>
<g><path style="opacity:1" fill="#3d3e3d" d="M 83.5,749.5 C 84.8333,750.167 84.8333,750.167 83.5,749.5 Z"/></g>
<g><path style="opacity:1" fill="#121925" d="M 1089.5,754.5 C 1090.83,755.167 1090.83,755.167 1089.5,754.5 Z"/></g>
<g><path style="opacity:1" fill="#3d3e43" d="M 84.5,756.5 C 85.8333,757.167 85.8333,757.167 84.5,756.5 Z"/></g>
<g><path style="opacity:1" fill="#121925" d="M 494.5,756.5 C 495.833,757.167 495.833,757.167 494.5,756.5 Z"/></g>
<g><path style="opacity:1" fill="#0c1f2b" d="M 948.5,756.5 C 949.833,757.167 949.833,757.167 948.5,756.5 Z"/></g>
<g><path style="opacity:1" fill="#3d4443" d="M 84.5,757.5 C 83.8333,758.167 83.8333,758.167 84.5,757.5 Z"/></g>
<g><path style="opacity:1" fill="#121f24" d="M 1043.5,757.5 C 1044.83,758.167 1044.83,758.167 1043.5,757.5 Z"/></g>
<g><path style="opacity:1" fill="#0c1f24" d="M 948.5,764.5 C 949.833,765.167 949.833,765.167 948.5,764.5 Z"/></g>
<g><path style="opacity:1" fill="#434443" d="M 83.5,765.5 C 84.8333,766.167 84.8333,766.167 83.5,765.5 Z"/></g>
<g><path style="opacity:1" fill="#434443" d="M 84.5,772.5 C 85.8333,773.167 85.8333,773.167 84.5,772.5 Z"/></g>
<g><path style="opacity:1" fill="#11191e" d="M 494.5,772.5 C 495.833,773.167 495.833,773.167 494.5,772.5 Z"/></g>
<g><path style="opacity:1" fill="#121f24" d="M 948.5,772.5 C 949.833,773.167 949.833,773.167 948.5,772.5 Z"/></g>
<g><path style="opacity:1" fill="#18191e" d="M 494.5,780.5 C 495.833,781.167 495.833,781.167 494.5,780.5 Z"/></g>
<g><path style="opacity:1" fill="#242524" d="M 1189.5,782.5 C 1190.83,783.167 1190.83,783.167 1189.5,782.5 Z"/></g>
<g><path style="opacity:1" fill="#111918" d="M 727.5,784.5 C 728.833,785.167 728.833,785.167 727.5,784.5 Z"/></g>
<g><path style="opacity:1" fill="#434443" d="M 83.5,789.5 C 84.8333,790.167 84.8333,790.167 83.5,789.5 Z"/></g>
<g><path style="opacity:1" fill="#121f1e" d="M 995.5,789.5 C 996.833,790.167 996.833,790.167 995.5,789.5 Z"/></g>
<g><path style="opacity:1" fill="#434443" d="M 86.5,795.5 C 87.8333,796.167 87.8333,796.167 86.5,795.5 Z"/></g>
<g><path style="opacity:1" fill="#43444a" d="M 84.5,796.5 C 85.8333,797.167 85.8333,797.167 84.5,796.5 Z"/></g>
<g><path style="opacity:1" fill="#11191e" d="M 948.5,796.5 C 949.833,797.167 949.833,797.167 948.5,796.5 Z"/></g>
<g><path style="opacity:1" fill="#43444a" d="M 84.5,797.5 C 83.8333,798.167 83.8333,798.167 84.5,797.5 Z"/></g>
<g><path style="opacity:1" fill="#242b2a" d="M 1189.5,798.5 C 1190.83,799.167 1190.83,799.167 1189.5,798.5 Z"/></g>
<g><path style="opacity:1" fill="#11191e" d="M 948.5,800.5 C 949.833,801.167 949.833,801.167 948.5,800.5 Z"/></g>
<g><path style="opacity:1" fill="#24252a" d="M 1189.5,802.5 C 1190.83,803.167 1190.83,803.167 1189.5,802.5 Z"/></g>
<g><path style="opacity:1" fill="#11191e" d="M 948.5,804.5 C 949.833,805.167 949.833,805.167 948.5,804.5 Z"/></g>
<g><path style="opacity:1" fill="#18191e" d="M 948.5,812.5 C 949.833,813.167 949.833,813.167 948.5,812.5 Z"/></g>
<g><path style="opacity:1" fill="#4a4b4a" d="M 83.5,813.5 C 84.8333,814.167 84.8333,814.167 83.5,813.5 Z"/></g>
<g><path style="opacity:1" fill="#1e1f24" d="M 494.5,820.5 C 495.833,821.167 495.833,821.167 494.5,820.5 Z"/></g>
<g><path style="opacity:1" fill="#181f1e" d="M 948.5,820.5 C 949.833,821.167 949.833,821.167 948.5,820.5 Z"/></g>
<g><path style="opacity:1" fill="#4a4b4a" d="M 83.5,821.5 C 84.8333,822.167 84.8333,822.167 83.5,821.5 Z"/></g>
<g><path style="opacity:1" fill="#1e251e" d="M 1043.5,821.5 C 1044.83,822.167 1044.83,822.167 1043.5,821.5 Z"/></g>
<g><path style="opacity:1" fill="#242524" d="M 1089.5,826.5 C 1090.83,827.167 1090.83,827.167 1089.5,826.5 Z"/></g>
<g><path style="opacity:1" fill="#1e2524" d="M 494.5,828.5 C 495.833,829.167 495.833,829.167 494.5,828.5 Z"/></g>
<g><path style="opacity:1" fill="#181f1e" d="M 948.5,828.5 C 949.833,829.167 949.833,829.167 948.5,828.5 Z"/></g>
<g><path style="opacity:1" fill="#4a4b4a" d="M 83.5,829.5 C 84.8333,830.167 84.8333,830.167 83.5,829.5 Z"/></g>
<g><path style="opacity:1" fill="#2a3231" d="M 1189.5,830.5 C 1190.83,831.167 1190.83,831.167 1189.5,830.5 Z"/></g>
<g><path style="opacity:1" fill="#242524" d="M 1043.5,834.5 C 1044.83,835.167 1044.83,835.167 1043.5,834.5 Z"/></g>
<g><path style="opacity:1" fill="#242524" d="M 494.5,836.5 C 495.833,837.167 495.833,837.167 494.5,836.5 Z"/></g>
<g><path style="opacity:1" fill="#1e1f1e" d="M 948.5,836.5 C 949.833,837.167 949.833,837.167 948.5,836.5 Z"/></g>
<g><path style="opacity:1" fill="#4a4b4a" d="M 83.5,837.5 C 84.8333,838.167 84.8333,838.167 83.5,837.5 Z"/></g>
<g><path style="opacity:1" fill="#24252a" d="M 494.5,844.5 C 495.833,845.167 495.833,845.167 494.5,844.5 Z"/></g>
<g><path style="opacity:1" fill="#242524" d="M 947.5,845.5 C 948.833,846.167 948.833,846.167 947.5,845.5 Z"/></g>
<g><path style="opacity:1" fill="#2a2b2a" d="M 1089.5,850.5 C 1090.83,851.167 1090.83,851.167 1089.5,850.5 Z"/></g>
<g><path style="opacity:1" fill="#242524" d="M 948.5,852.5 C 949.833,853.167 949.833,853.167 948.5,852.5 Z"/></g>
<g><path style="opacity:1" fill="#43444a" d="M 133.5,854.5 C 134.833,855.167 134.833,855.167 133.5,854.5 Z"/></g>
<g><path style="opacity:1" fill="#24252a" d="M 948.5,860.5 C 949.833,861.167 949.833,861.167 948.5,860.5 Z"/></g>
<g><path style="opacity:1" fill="#313231" d="M 494.5,868.5 C 495.833,869.167 495.833,869.167 494.5,868.5 Z"/></g>
<g><path style="opacity:1" fill="#2a2b2a" d="M 948.5,868.5 C 949.833,869.167 949.833,869.167 948.5,868.5 Z"/></g>
<g><path style="opacity:1" fill="#313231" d="M 494.5,876.5 C 495.833,877.167 495.833,877.167 494.5,876.5 Z"/></g>
<g><path style="opacity:1" fill="#2a2b2a" d="M 948.5,876.5 C 949.833,877.167 949.833,877.167 948.5,876.5 Z"/></g>
<g><path style="opacity:1" fill="#505150" d="M 83.5,877.5 C 84.8333,878.167 84.8333,878.167 83.5,877.5 Z"/></g>
<g><path style="opacity:1" fill="#37383d" d="M 1189.5,878.5 C 1190.83,879.167 1190.83,879.167 1189.5,878.5 Z"/></g>
<g><path style="opacity:1" fill="#4a4b4a" d="M 131.5,882.5 C 132.833,883.167 132.833,883.167 131.5,882.5 Z"/></g>
<g><path style="opacity:1" fill="#434443" d="M 219.5,882.5 C 220.833,883.167 220.833,883.167 219.5,882.5 Z"/></g>
<g><path style="opacity:1" fill="#313837" d="M 1090.5,882.5 C 1091.83,883.167 1091.83,883.167 1090.5,882.5 Z"/></g>
<g><path style="opacity:1" fill="#313237" d="M 494.5,884.5 C 495.833,885.167 495.833,885.167 494.5,884.5 Z"/></g>
<g><path style="opacity:1" fill="#313231" d="M 948.5,884.5 C 949.833,885.167 949.833,885.167 948.5,884.5 Z"/></g>
<g><path style="opacity:1" fill="#505150" d="M 83.5,885.5 C 84.8333,886.167 84.8333,886.167 83.5,885.5 Z"/></g>
<g><path style="opacity:1" fill="#313831" d="M 1043.5,885.5 C 1044.83,886.167 1044.83,886.167 1043.5,885.5 Z"/></g>
<g><path style="opacity:1" fill="#3d3e3d" d="M 1189.5,886.5 C 1190.83,887.167 1190.83,887.167 1189.5,886.5 Z"/></g>
<g><path style="opacity:1" fill="#313237" d="M 516.5,888.5 C 517.833,889.167 517.833,889.167 516.5,888.5 Z"/></g>
<g><path style="opacity:1" fill="#373837" d="M 494.5,892.5 C 495.833,893.167 495.833,893.167 494.5,892.5 Z"/></g>
<g><path style="opacity:1" fill="#373837" d="M 1089.5,898.5 C 1090.83,899.167 1090.83,899.167 1089.5,898.5 Z"/></g>
<g><path style="opacity:1" fill="#37383d" d="M 494.5,900.5 C 495.833,901.167 495.833,901.167 494.5,900.5 Z"/></g>
<g><path style="opacity:1" fill="#313837" d="M 948.5,900.5 C 949.833,901.167 949.833,901.167 948.5,900.5 Z"/></g>
<g><path style="opacity:1" fill="#373837" d="M 997.5,906.5 C 998.833,907.167 998.833,907.167 997.5,906.5 Z"/></g>
<g><path style="opacity:1" fill="#373837" d="M 948.5,908.5 C 949.833,909.167 949.833,909.167 948.5,908.5 Z"/></g>
<g><path style="opacity:1" fill="#3d3e3d" d="M 1089.5,914.5 C 1090.83,915.167 1090.83,915.167 1089.5,914.5 Z"/></g>
<g><path style="opacity:1" fill="#3d3e3d" d="M 494.5,916.5 C 495.833,917.167 495.833,917.167 494.5,916.5 Z"/></g>
<g><path style="opacity:1" fill="#373e3d" d="M 948.5,916.5 C 949.833,917.167 949.833,917.167 948.5,916.5 Z"/></g>
<g><path style="opacity:1" fill="#505156" d="M 83.5,917.5 C 84.8333,918.167 84.8333,918.167 83.5,917.5 Z"/></g>
<g><path style="opacity:1" fill="#3d443d" d="M 494.5,920.5 C 495.833,921.167 495.833,921.167 494.5,920.5 Z"/></g>
<g><path style="opacity:1" fill="#3d3e43" d="M 1043.5,922.5 C 1044.83,923.167 1044.83,923.167 1043.5,922.5 Z"/></g>
<g><path style="opacity:1" fill="#3d3e43" d="M 1089.5,922.5 C 1090.83,923.167 1090.83,923.167 1089.5,922.5 Z"/></g>
<g><path style="opacity:1" fill="#565756" d="M 86.5,923.5 C 87.8333,924.167 87.8333,924.167 86.5,923.5 Z"/></g>
<g><path style="opacity:1" fill="#3d3e3d" d="M 972.5,923.5 C 973.833,924.167 973.833,924.167 972.5,923.5 Z"/></g>
<g><path style="opacity:1" fill="#3d3e3d" d="M 478.5,924.5 C 479.833,925.167 479.833,925.167 478.5,924.5 Z"/></g>
<g><path style="opacity:1" fill="#3d4443" d="M 494.5,924.5 C 495.833,925.167 495.833,925.167 494.5,924.5 Z"/></g>
<g><path style="opacity:1" fill="#3d3e3d" d="M 924.5,924.5 C 925.833,925.167 925.833,925.167 924.5,924.5 Z"/></g>
<g><path style="opacity:1" fill="#3d3e3d" d="M 948.5,924.5 C 949.833,925.167 949.833,925.167 948.5,924.5 Z"/></g>
<g><path style="opacity:1" fill="#565756" d="M 83.5,925.5 C 84.8333,926.167 84.8333,926.167 83.5,925.5 Z"/></g>
<g><path style="opacity:1" fill="#505150" d="M 133.5,926.5 C 134.833,927.167 134.833,927.167 133.5,926.5 Z"/></g>
<g><path style="opacity:1" fill="#4a4b4a" d="M 1189.5,926.5 C 1190.83,927.167 1190.83,927.167 1189.5,926.5 Z"/></g>
<g><path style="opacity:1" fill="#3d3e3d" d="M 727.5,928.5 C 728.833,929.167 728.833,929.167 727.5,928.5 Z"/></g>
<g><path style="opacity:1" fill="#3d3e43" d="M 1015.5,928.5 C 1016.83,929.167 1016.83,929.167 1015.5,928.5 Z"/></g>
<g><path style="opacity:1" fill="#3d4443" d="M 997.5,930.5 C 998.833,931.167 998.833,931.167 997.5,930.5 Z"/></g>
<g><path style="opacity:1" fill="#434443" d="M 1043.5,930.5 C 1044.83,931.167 1044.83,931.167 1043.5,930.5 Z"/></g>
<g><path style="opacity:1" fill="#434443" d="M 1090.5,930.5 C 1091.83,931.167 1091.83,931.167 1090.5,930.5 Z"/></g>
<g><path style="opacity:1" fill="#434443" d="M 494.5,932.5 C 495.833,933.167 495.833,933.167 494.5,932.5 Z"/></g>
<g><path style="opacity:1" fill="#3d3e3d" d="M 924.5,932.5 C 925.833,933.167 925.833,933.167 924.5,932.5 Z"/></g>
<g><path style="opacity:1" fill="#3d4443" d="M 948.5,932.5 C 949.833,933.167 949.833,933.167 948.5,932.5 Z"/></g>
<g><path style="opacity:1" fill="#565756" d="M 83.5,933.5 C 84.8333,934.167 84.8333,934.167 83.5,933.5 Z"/></g>
<g><path style="opacity:1" fill="#505150" d="M 131.5,938.5 C 132.833,939.167 132.833,939.167 131.5,938.5 Z"/></g>
<g><path style="opacity:1" fill="#434b43" d="M 1090.5,938.5 C 1091.83,939.167 1091.83,939.167 1090.5,938.5 Z"/></g>
<g><path style="opacity:1" fill="#43444a" d="M 494.5,940.5 C 495.833,941.167 495.833,941.167 494.5,940.5 Z"/></g>
<g><path style="opacity:1" fill="#434443" d="M 948.5,940.5 C 949.833,941.167 949.833,941.167 948.5,940.5 Z"/></g>
<g><path style="opacity:1" fill="#43444a" d="M 1043.5,941.5 C 1044.83,942.167 1044.83,942.167 1043.5,941.5 Z"/></g>
<g><path style="opacity:1" fill="#434b4a" d="M 1111.5,944.5 C 1112.83,945.167 1112.83,945.167 1111.5,944.5 Z"/></g>
<g><path style="opacity:1" fill="#4a4b4a" d="M 1089.5,946.5 C 1090.83,947.167 1090.83,947.167 1089.5,946.5 Z"/></g>
<g><path style="opacity:1" fill="#4a4b4a" d="M 494.5,948.5 C 495.833,949.167 495.833,949.167 494.5,948.5 Z"/></g>
<g><path style="opacity:1" fill="#434443" d="M 948.5,948.5 C 949.833,949.167 949.833,949.167 948.5,948.5 Z"/></g>
<g><path style="opacity:1" fill="#565756" d="M 83.5,949.5 C 84.8333,950.167 84.8333,950.167 83.5,949.5 Z"/></g>
<g><path style="opacity:1" fill="#4a4b4a" d="M 1043.5,949.5 C 1044.83,950.167 1044.83,950.167 1043.5,949.5 Z"/></g>
<g><path style="opacity:1" fill="#565756" d="M 133.5,950.5 C 134.833,951.167 134.833,951.167 133.5,950.5 Z"/></g>
<g><path style="opacity:1" fill="#505150" d="M 1189.5,950.5 C 1190.83,951.167 1190.83,951.167 1189.5,950.5 Z"/></g>
<g><path style="opacity:1" fill="#4a4b4a" d="M 1043.5,954.5 C 1044.83,955.167 1044.83,955.167 1043.5,954.5 Z"/></g>
<g><path style="opacity:1" fill="#4a4b4a" d="M 1089.5,955.5 C 1089.9,954.475 1090.56,954.308 1091.5,955C 1090.91,955.464 1090.24,955.631 1089.5,955.5 Z"/></g>
<g><path style="opacity:1" fill="#4a4b4a" d="M 494.5,956.5 C 495.833,957.167 495.833,957.167 494.5,956.5 Z"/></g>
<g><path style="opacity:1" fill="#434b4a" d="M 948.5,956.5 C 949.833,957.167 949.833,957.167 948.5,956.5 Z"/></g>
<g><path style="opacity:1" fill="#565756" d="M 83.5,957.5 C 84.8333,958.167 84.8333,958.167 83.5,957.5 Z"/></g>
<g><path style="opacity:1" fill="#4a4b4a" d="M 1043.5,957.5 C 1044.83,958.167 1044.83,958.167 1043.5,957.5 Z"/></g>
<g><path style="opacity:1" fill="#4a4b4a" d="M 948.5,960.5 C 949.833,961.167 949.833,961.167 948.5,960.5 Z"/></g>
<g><path style="opacity:1" fill="#4a4b4a" d="M 1140.5,960.5 C 1141.83,961.167 1141.83,961.167 1140.5,960.5 Z"/></g>
<g><path style="opacity:1" fill="#4a4b4a" d="M 1017.5,962.5 C 1018.83,963.167 1018.83,963.167 1017.5,962.5 Z"/></g>
<g><path style="opacity:1" fill="#4a514a" d="M 1090.5,962.5 C 1091.83,963.167 1091.83,963.167 1090.5,962.5 Z"/></g>
<g><path style="opacity:1" fill="#4a4b50" d="M 494.5,964.5 C 495.833,965.167 495.833,965.167 494.5,964.5 Z"/></g>
<g><path style="opacity:1" fill="#4a4b4a" d="M 948.5,964.5 C 949.833,965.167 949.833,965.167 948.5,964.5 Z"/></g>
<g><path style="opacity:1" fill="#4a4b50" d="M 1042.5,964.5 C 1043.83,965.167 1043.83,965.167 1042.5,964.5 Z"/></g>
<g><path style="opacity:1" fill="#5c5d5c" d="M 11.5,965.5 C 12.8333,966.167 12.8333,966.167 11.5,965.5 Z"/></g>
<g><path style="opacity:1" fill="#56575c" d="M 83.5,965.5 C 84.8333,966.167 84.8333,966.167 83.5,965.5 Z"/></g>
<g><path style="opacity:1" fill="#4a4b4a" d="M 948.5,968.5 C 949.833,969.167 949.833,969.167 948.5,968.5 Z"/></g>
<g><path style="opacity:1" fill="#505150" d="M 494.5,972.5 C 495.833,973.167 495.833,973.167 494.5,972.5 Z"/></g>
<g><path style="opacity:1" fill="#4a4b4a" d="M 948.5,972.5 C 949.833,973.167 949.833,973.167 948.5,972.5 Z"/></g>
<g><path style="opacity:1" fill="#505150" d="M 1043.5,973.5 C 1044.83,974.167 1044.83,974.167 1043.5,973.5 Z"/></g>
<g><path style="opacity:1" fill="#505150" d="M 1044.5,976.5 C 1045.83,977.167 1045.83,977.167 1044.5,976.5 Z"/></g>
<g><path style="opacity:1" fill="#505150" d="M 1093.5,977.5 C 1094.83,978.167 1094.83,978.167 1093.5,977.5 Z"/></g>
<g><path style="opacity:1" fill="#505150" d="M 997.5,978.5 C 998.833,979.167 998.833,979.167 997.5,978.5 Z"/></g>
<g><path style="opacity:1" fill="#505150" d="M 1090.5,978.5 C 1091.83,979.167 1091.83,979.167 1090.5,978.5 Z"/></g>
<g><path style="opacity:1" fill="#5c5d5c" d="M 84.5,980.5 C 85.8333,981.167 85.8333,981.167 84.5,980.5 Z"/></g>
<g><path style="opacity:1" fill="#505150" d="M 494.5,980.5 C 495.833,981.167 495.833,981.167 494.5,980.5 Z"/></g>
<g><path style="opacity:1" fill="#505150" d="M 830.5,980.5 C 831.833,981.167 831.833,981.167 830.5,980.5 Z"/></g>
<g><path style="opacity:1" fill="#4a5150" d="M 948.5,980.5 C 949.833,981.167 949.833,981.167 948.5,980.5 Z"/></g>
<g><path style="opacity:1" fill="#5c5d5c" d="M 84.5,981.5 C 83.8333,982.167 83.8333,982.167 84.5,981.5 Z"/></g>
<g><path style="opacity:1" fill="#505150" d="M 997.5,986.5 C 998.833,987.167 998.833,987.167 997.5,986.5 Z"/></g>
<g><path style="opacity:1" fill="#565156" d="M 494.5,988.5 C 495.833,989.167 495.833,989.167 494.5,988.5 Z"/></g>
<g><path style="opacity:1" fill="#505150" d="M 830.5,988.5 C 831.833,989.167 831.833,989.167 830.5,988.5 Z"/></g>
<g><path style="opacity:1" fill="#505150" d="M 924.5,988.5 C 925.833,989.167 925.833,989.167 924.5,988.5 Z"/></g>
<g><path style="opacity:1" fill="#505150" d="M 948.5,988.5 C 949.833,989.167 949.833,989.167 948.5,988.5 Z"/></g>
<g><path style="opacity:1" fill="#5c5d5c" d="M 83.5,989.5 C 84.8333,990.167 84.8333,990.167 83.5,989.5 Z"/></g>
<g><path style="opacity:1" fill="#505750" d="M 1043.5,989.5 C 1044.83,990.167 1044.83,990.167 1043.5,989.5 Z"/></g>
<g><path style="opacity:1" fill="#5c5d5c" d="M 84.5,996.5 C 85.8333,997.167 85.8333,997.167 84.5,996.5 Z"/></g>
<g><path style="opacity:1" fill="#565756" d="M 494.5,996.5 C 495.833,997.167 495.833,997.167 494.5,996.5 Z"/></g>
<g><path style="opacity:1" fill="#505150" d="M 830.5,996.5 C 831.833,997.167 831.833,997.167 830.5,996.5 Z"/></g>
<g><path style="opacity:1" fill="#505150" d="M 924.5,996.5 C 925.833,997.167 925.833,997.167 924.5,996.5 Z"/></g>
<g><path style="opacity:1" fill="#505150" d="M 948.5,996.5 C 949.833,997.167 949.833,997.167 948.5,996.5 Z"/></g>
<g><path style="opacity:1" fill="#5c5d5c" d="M 84.5,997.5 C 83.8333,998.167 83.8333,998.167 84.5,997.5 Z"/></g>
<g><path style="opacity:1" fill="#505150" d="M 924.5,997.5 C 923.833,998.167 923.833,998.167 924.5,997.5 Z"/></g>
<g><path style="opacity:1" fill="#565756" d="M 1189.5,998.5 C 1190.83,999.167 1190.83,999.167 1189.5,998.5 Z"/></g>
<g><path style="opacity:1" fill="#505150" d="M 948.5,1000.5 C 949.833,1001.17 949.833,1001.17 948.5,1000.5 Z"/></g>
<g><path style="opacity:1" fill="#5c5d5c" d="M 157.5,1001.5 C 158.833,1002.17 158.833,1002.17 157.5,1001.5 Z"/></g>
<g><path style="opacity:1" fill="#565756" d="M 494.5,1004.5 C 495.833,1005.17 495.833,1005.17 494.5,1004.5 Z"/></g>
<g><path style="opacity:1" fill="#505156" d="M 948.5,1004.5 C 949.833,1005.17 949.833,1005.17 948.5,1004.5 Z"/></g>
<g><path style="opacity:1" fill="#5c5d63" d="M 83.5,1005.5 C 84.8333,1006.17 84.8333,1006.17 83.5,1005.5 Z"/></g>
<g><path style="opacity:1" fill="#565756" d="M 1043.5,1005.5 C 1044.83,1006.17 1044.83,1006.17 1043.5,1005.5 Z"/></g>
<g><path style="opacity:1" fill="#5c5d5c" d="M 1189.5,1006.5 C 1190.83,1007.17 1190.83,1007.17 1189.5,1006.5 Z"/></g>
<g><path style="opacity:1" fill="#565756" d="M 657.5,1008.5 C 658.833,1009.17 658.833,1009.17 657.5,1008.5 Z"/></g>
<g><path style="opacity:1" fill="#565750" d="M 727.5,1008.5 C 728.833,1009.17 728.833,1009.17 727.5,1008.5 Z"/></g>
<g><path style="opacity:1" fill="#565756" d="M 948.5,1008.5 C 949.833,1009.17 949.833,1009.17 948.5,1008.5 Z"/></g>
<g><path style="opacity:1" fill="#565756" d="M 1140.5,1008.5 C 1141.83,1009.17 1141.83,1009.17 1140.5,1008.5 Z"/></g>
<g><path style="opacity:1" fill="#565756" d="M 995.5,1010.5 C 996.833,1011.17 996.833,1011.17 995.5,1010.5 Z"/></g>
<g><path style="opacity:1" fill="#565756" d="M 1089.5,1010.5 C 1090.83,1011.17 1090.83,1011.17 1089.5,1010.5 Z"/></g>
<g><path style="opacity:1" fill="#565756" d="M 494.5,1011.5 C 495.525,1011.9 495.692,1012.56 495,1013.5C 494.536,1012.91 494.369,1012.24 494.5,1011.5 Z"/></g>
<g><path style="opacity:1" fill="#565756" d="M 1190.5,1011.5 C 1191.83,1012.17 1191.83,1012.17 1190.5,1011.5 Z"/></g>
<g><path style="opacity:1" fill="#565750" d="M 830.5,1012.5 C 831.833,1013.17 831.833,1013.17 830.5,1012.5 Z"/></g>
<g><path style="opacity:1" fill="#505756" d="M 948.5,1012.5 C 949.833,1013.17 949.833,1013.17 948.5,1012.5 Z"/></g>
<g><path style="opacity:1" fill="#565756" d="M 948.5,1013.5 C 947.833,1014.17 947.833,1014.17 948.5,1013.5 Z"/></g>
<g><path style="opacity:1" fill="#565756" d="M 1043.5,1013.5 C 1044.83,1014.17 1044.83,1014.17 1043.5,1013.5 Z"/></g>
<g><path style="opacity:1" fill="#5c5d5c" d="M 1189.5,1014.5 C 1190.83,1015.17 1190.83,1015.17 1189.5,1014.5 Z"/></g>
<g><path style="opacity:1" fill="#565756" d="M 494.5,1015.5 C 495.833,1016.17 495.833,1016.17 494.5,1015.5 Z"/></g>
<g><path style="opacity:1" fill="#565756" d="M 995.5,1018.5 C 996.833,1019.17 996.833,1019.17 995.5,1018.5 Z"/></g>
<g><path style="opacity:1" fill="#5c575c" d="M 1190.5,1019.5 C 1191.83,1020.17 1191.83,1020.17 1190.5,1019.5 Z"/></g>
<g><path style="opacity:1" fill="#56575c" d="M 494.5,1020.5 C 495.833,1021.17 495.833,1021.17 494.5,1020.5 Z"/></g>
<g><path style="opacity:1" fill="#565756" d="M 948.5,1020.5 C 949.833,1021.17 949.833,1021.17 948.5,1020.5 Z"/></g>
<g><path style="opacity:1" fill="#565756" d="M 1044.5,1020.5 C 1045.83,1021.17 1045.83,1021.17 1044.5,1020.5 Z"/></g>
<g><path style="opacity:1" fill="#5c5d5c" d="M 1214.5,1020.5 C 1215.83,1021.17 1215.83,1021.17 1214.5,1020.5 Z"/></g>
<g><path style="opacity:1" fill="#5c5d63" d="M 83.5,1021.5 C 84.8333,1022.17 84.8333,1022.17 83.5,1021.5 Z"/></g>
<g><path style="opacity:1" fill="#565756" d="M 1044.5,1021.5 C 1043.83,1022.17 1043.83,1022.17 1044.5,1021.5 Z"/></g>
</svg>
